<svg width="276" height="304" viewBox="0 0 276 304" fill="#1a150f" xmlns="http://www.w3.org/2000/svg">
<rect width="276" height="304" fill="#1a150f"/>
<circle cx="143" cy="47" r="5" fill="#FEF756"/>
<circle cx="143" cy="47" r="5" fill="#FEF756"/>
<circle cx="143" cy="47" r="5" fill="#FEF756"/>
<circle cx="143" cy="47" r="5" fill="#FEF756"/>
<circle cx="143" cy="47" r="5" fill="#FEF756"/>
<circle cx="143" cy="47" r="5" fill="#FEF756"/>
<circle cx="143" cy="47" r="5" fill="#FEF756"/>
<circle cx="143" cy="47" r="5" fill="#FEF756"/>
<circle cx="143" cy="47" r="5" fill="#FEF756"/>
<circle cx="143" cy="47" r="5" fill="#FEF756"/>
<circle cx="143" cy="47" r="5" fill="#FEF756"/>
<circle cx="143" cy="227" r="5" fill="#FEF756"/>
<circle cx="143" cy="227" r="5" fill="#FEF756"/>
<circle cx="143" cy="227" r="5" fill="#FEF756"/>
<circle cx="143" cy="227" r="5" fill="#FEF756"/>
<circle cx="143" cy="227" r="5" fill="#FEF756"/>
<circle cx="143" cy="227" r="5" fill="#FEF756"/>
<circle cx="143" cy="227" r="5" fill="#FEF756"/>
<circle cx="143" cy="227" r="5" fill="#FEF756"/>
<circle cx="143" cy="227" r="5" fill="#FEF756"/>
<circle cx="143" cy="227" r="5" fill="#FEF756"/>
<circle cx="143" cy="227" r="5" fill="#FAFD73"/>
<rect width="276" height="304" fill="url(#paint0_radial)"/>
<mask id="mask0" mask-type="alpha" maskUnits="userSpaceOnUse" x="0" y="0" width="276" height="304">
<rect width="276" height="304" rx="5" fill="#C4C4C4"/>
</mask>
<g mask="url(#mask0)">
</g>
<path d="M142.5 49L163.268 115.68H230.473L176.103 156.89L196.87 223.57L142.5 182.36L88.1299 223.57L108.897 156.89L54.5273 115.68H121.732L142.5 49Z" fill="#FEF756" fill-opacity="0.17"/>
<g filter="url(#filter0_d)">
<path d="M129.302 52.96C129.302 53.66 128.928 54.08 128.182 54.22L124.192 55.06V100.07H120.762C119.828 100.07 119.035 99.6733 118.382 98.88L89.3316 61.08C89.4249 61.8733 89.4716 62.9467 89.4716 64.3V94.96C90.7782 95.1467 92.3416 95.4267 94.1616 95.8C94.8149 95.94 95.1416 96.36 95.1416 97.06V100.07H78.4816V97.06C78.4816 96.36 78.8316 95.94 79.5316 95.8L83.5216 94.96V55.06C81.2816 54.64 79.9516 54.36 79.5316 54.22C78.8316 54.08 78.4816 53.6367 78.4816 52.89V49.88H87.0216C87.6282 49.88 88.0716 49.95 88.3516 50.09C88.5382 50.1833 88.8882 50.4867 89.4016 51L118.382 88.8C118.288 88.1467 118.242 87.0267 118.242 85.44V55.06C116.888 54.8733 115.815 54.71 115.022 54.57C114.228 54.3833 113.762 54.2667 113.622 54.22C112.875 54.08 112.502 53.66 112.502 52.96V49.88H129.302V52.96ZM148.927 64.02C151.494 64.02 153.827 64.44 155.927 65.28C157.981 66.12 159.777 67.3333 161.317 68.92C162.764 70.4133 163.884 72.3267 164.677 74.66C165.471 76.9467 165.867 79.4667 165.867 82.22C165.867 84.9733 165.471 87.4933 164.677 89.78C163.884 92.1133 162.764 94.0267 161.317 95.52C159.777 97.1067 157.981 98.32 155.927 99.16C153.827 100 151.494 100.42 148.927 100.42C146.361 100.42 144.027 100 141.927 99.16C139.874 98.32 138.077 97.1067 136.537 95.52C135.137 94.0733 133.994 92.16 133.107 89.78C132.361 87.7733 131.987 85.2533 131.987 82.22C131.987 79.1867 132.361 76.6667 133.107 74.66C133.994 72.28 135.137 70.3667 136.537 68.92C138.077 67.3333 139.874 66.12 141.927 65.28C144.027 64.44 146.361 64.02 148.927 64.02ZM148.927 95.66C152.521 95.66 155.134 94.4933 156.767 92.16C158.494 89.7333 159.357 86.4433 159.357 82.29C159.357 78.1367 158.494 74.8467 156.767 72.42C155.134 70.0867 152.521 68.92 148.927 68.92C147.107 68.92 145.567 69.2 144.307 69.76C143.094 70.32 142.021 71.2067 141.087 72.42C140.201 73.6333 139.547 75.0333 139.127 76.62C138.661 78.4867 138.427 80.4 138.427 82.36C138.427 84.2267 138.661 86.0933 139.127 87.96C139.547 89.5467 140.201 90.9467 141.087 92.16C141.881 93.2333 142.954 94.0733 144.307 94.68C145.801 95.3333 147.341 95.66 148.927 95.66ZM182.62 100.56C179.913 100.56 177.766 99.7667 176.18 98.18C174.686 96.6867 173.94 94.4467 173.94 91.46V69.76H169.67C169.25 69.76 168.923 69.6667 168.69 69.48C168.456 69.2933 168.34 68.9433 168.34 68.43V65.98L174.15 65.21L175.55 54.22C175.55 53.8467 175.69 53.5667 175.97 53.38C176.203 53.1933 176.53 53.1 176.95 53.1H180.1V65.28H190.25V69.83H180.1V91.11C180.1 92.65 180.45 93.77 181.15 94.47C181.85 95.17 182.806 95.52 184.02 95.52C184.533 95.52 185.116 95.4267 185.77 95.24C186.19 95.1 186.61 94.9133 187.03 94.68C187.17 94.5867 187.31 94.4933 187.45 94.4C187.59 94.3067 187.73 94.2133 187.87 94.12C188.243 93.9333 188.476 93.84 188.57 93.84C188.896 93.84 189.176 94.0267 189.41 94.4L191.23 97.34C189.97 98.4133 188.663 99.2067 187.31 99.72C185.77 100.28 184.206 100.56 182.62 100.56ZM57.9562 130.99H54.5263C53.7329 130.99 53.2663 130.593 53.1263 129.8C53.1263 129.66 53.0563 129.123 52.9163 128.19C52.8229 127.21 52.7063 125.95 52.5663 124.41H32.6863V141.98H51.7263V147.44H32.6863V163.96L36.6063 164.73C37.3529 164.87 37.7263 165.313 37.7263 166.06V169H20.7863V166.06C20.7863 165.313 21.1363 164.87 21.8363 164.73L25.8263 163.96V123.99C23.5863 123.57 22.2563 123.29 21.8363 123.15C21.1363 123.01 20.7863 122.567 20.7863 121.82V118.88H57.9562V130.99ZM92.3252 164.52C92.6518 164.567 92.9085 164.73 93.0952 165.01C93.2818 165.243 93.3752 165.523 93.3752 165.85V168.86H86.0952C85.6752 168.86 85.1852 168.767 84.6252 168.58C84.2985 168.487 84.0652 168.113 83.9252 167.46L83.2252 164.1L80.4252 166.41C79.6318 167.063 78.6985 167.623 77.6252 168.09C76.5985 168.557 75.5718 168.907 74.5452 169.14C73.6118 169.373 72.3518 169.49 70.7652 169.49C69.4585 169.49 68.1985 169.28 66.9852 168.86C65.5385 168.347 64.4885 167.787 63.8352 167.18C62.9952 166.433 62.2952 165.453 61.7352 164.24C61.2218 163.167 60.9652 161.767 60.9652 160.04C60.9652 158.547 61.3385 157.193 62.0852 155.98C62.9252 154.627 64.1852 153.46 65.8652 152.48C67.7318 151.407 69.9718 150.567 72.5852 149.96C75.2918 149.353 78.6985 149.05 82.8052 149.05V146.32C82.8052 143.567 82.1985 141.467 80.9852 140.02C79.7718 138.573 78.0218 137.85 75.7352 137.85C74.2418 137.85 72.9585 138.06 71.8852 138.48C70.6718 138.947 69.7852 139.367 69.2252 139.74C68.9452 139.927 68.6185 140.137 68.2452 140.37C67.9185 140.557 67.5685 140.767 67.1952 141C66.6818 141.373 66.1452 141.56 65.5852 141.56C65.0718 141.56 64.6985 141.467 64.4652 141.28C64.1852 141.047 63.9518 140.767 63.7652 140.44L62.6452 138.48C64.4652 136.707 66.5652 135.307 68.9452 134.28C71.0918 133.347 73.6118 132.88 76.5052 132.88C78.6052 132.88 80.3785 133.207 81.8252 133.86C83.4118 134.56 84.6952 135.447 85.6752 136.52C86.7018 137.593 87.4952 138.993 88.0552 140.72C88.5685 142.26 88.8252 144.08 88.8252 146.18V163.89C91.0652 164.357 92.2318 164.613 92.3252 164.66V164.52ZM82.6652 153.04C79.6318 153.04 77.2052 153.203 75.3852 153.53C73.6118 153.857 71.9785 154.347 70.4852 155C69.1785 155.607 68.2452 156.307 67.6852 157.1C67.1252 157.94 66.8452 158.827 66.8452 159.76C66.8452 160.507 67.0085 161.3 67.3352 162.14C67.6152 162.84 68.0352 163.4 68.5952 163.82C69.1552 164.24 69.7618 164.543 70.4152 164.73C71.2085 164.963 71.9785 165.08 72.7252 165.08C73.6585 165.08 74.6385 164.963 75.6652 164.73C76.5985 164.497 77.4618 164.193 78.2552 163.82C78.9552 163.493 79.7252 162.98 80.5652 162.28C81.0318 161.907 81.7318 161.253 82.6652 160.32V153.04ZM108.404 138.55C111.39 134.863 114.727 133.02 118.414 133.02C120.84 133.02 122.8 133.697 124.294 135.05C125.74 136.357 126.814 138.153 127.514 140.44C128.54 137.92 130.08 136.053 132.134 134.84C134.28 133.627 136.334 133.02 138.294 133.02C140.347 133.02 142.167 133.323 143.754 133.93C145.247 134.49 146.507 135.353 147.534 136.52C149.587 138.853 150.614 142.167 150.614 146.46V163.96C152.947 164.38 154.3 164.66 154.674 164.8C155.374 164.94 155.724 165.36 155.724 166.06V169.14H144.454V146.53C144.454 143.683 143.847 141.583 142.634 140.23C141.327 138.783 139.554 138.06 137.314 138.06C135.167 138.06 133.394 138.76 131.994 140.16C130.454 141.7 129.684 143.8 129.684 146.46V163.96C129.87 164.007 130.267 164.1 130.874 164.24C131.48 164.38 132.414 164.567 133.674 164.8C134.374 164.94 134.724 165.36 134.724 166.06V169.07H123.454V146.46C123.454 140.86 121.214 138.06 116.734 138.06C113.84 138.06 111.204 139.6 108.824 142.68V163.96L110.714 164.31L112.814 164.73C113.514 164.87 113.864 165.313 113.864 166.06V169H97.5538V166.06C97.5538 165.313 97.8805 164.87 98.5338 164.73L102.594 163.96V138.69C100.26 138.27 98.9072 137.99 98.5338 137.85C97.8805 137.71 97.5538 137.267 97.5538 136.52V133.58H106.234C107.074 133.58 107.634 134 107.914 134.84L108.404 138.48V138.55ZM175.929 133.02C178.496 133.02 180.829 133.44 182.929 134.28C184.983 135.12 186.779 136.333 188.319 137.92C189.766 139.413 190.886 141.327 191.679 143.66C192.473 145.947 192.869 148.467 192.869 151.22C192.869 153.973 192.473 156.493 191.679 158.78C190.886 161.113 189.766 163.027 188.319 164.52C186.779 166.107 184.983 167.32 182.929 168.16C180.829 169 178.496 169.42 175.929 169.42C173.363 169.42 171.029 169 168.929 168.16C166.876 167.32 165.079 166.107 163.539 164.52C162.139 163.073 160.996 161.16 160.109 158.78C159.363 156.773 158.989 154.253 158.989 151.22C158.989 148.187 159.363 145.667 160.109 143.66C160.996 141.28 162.139 139.367 163.539 137.92C165.079 136.333 166.876 135.12 168.929 134.28C171.029 133.44 173.363 133.02 175.929 133.02ZM175.929 164.66C179.523 164.66 182.136 163.493 183.769 161.16C185.496 158.733 186.359 155.443 186.359 151.29C186.359 147.137 185.496 143.847 183.769 141.42C182.136 139.087 179.523 137.92 175.929 137.92C174.109 137.92 172.569 138.2 171.309 138.76C170.096 139.32 169.023 140.207 168.089 141.42C167.203 142.633 166.549 144.033 166.129 145.62C165.663 147.487 165.429 149.4 165.429 151.36C165.429 153.227 165.663 155.093 166.129 156.96C166.549 158.547 167.203 159.947 168.089 161.16C168.883 162.233 169.956 163.073 171.309 163.68C172.803 164.333 174.343 164.66 175.929 164.66ZM214.172 164.66C217.672 164.66 220.868 163.027 223.762 159.76V138.76C223.342 138.62 222.012 138.34 219.772 137.92C219.072 137.78 218.722 137.337 218.722 136.59V133.58H229.992V163.96C232.232 164.38 233.562 164.66 233.982 164.8C234.682 164.94 235.032 165.36 235.032 166.06V169.07H226.282C225.442 169.07 224.882 168.627 224.602 167.74L224.112 163.96C220.752 167.74 216.832 169.63 212.352 169.63C208.572 169.63 205.632 168.393 203.532 165.92C201.478 163.447 200.452 160.203 200.452 156.19V138.69C198.305 138.27 196.998 137.99 196.532 137.85C195.785 137.71 195.412 137.267 195.412 136.52V133.58H206.752V156.12C206.752 158.92 207.358 161.02 208.572 162.42C209.832 163.867 211.698 164.59 214.172 164.59V164.66ZM253.053 133.02C255.479 133.02 258.559 133.65 262.293 134.91V144.01H259.563C258.909 144.01 258.513 143.683 258.373 143.03L257.953 138.41C255.759 137.897 253.939 137.64 252.493 137.64H252.423C250.509 137.64 248.899 138.153 247.593 139.18C246.333 140.16 245.703 141.233 245.703 142.4C245.703 143.613 245.983 144.5 246.543 145.06C247.476 146.133 248.829 146.95 250.603 147.51L252.703 148.14C253.076 148.233 253.823 148.467 254.943 148.84L258.303 150.1C259.236 150.427 260.216 151.033 261.243 151.92C263.156 153.413 264.113 155.467 264.113 158.08C264.113 161.487 262.969 164.193 260.683 166.2C258.209 168.393 255.083 169.49 251.303 169.49C247.429 169.49 243.603 168.86 239.823 167.6V158.36H242.343C242.903 158.36 243.253 158.64 243.393 159.2L243.813 163.68C245.679 164.613 248.083 165.08 251.023 165.08C253.263 165.08 255.083 164.497 256.483 163.33C257.696 162.257 258.303 161.067 258.303 159.76C258.303 158.407 258.023 157.427 257.463 156.82C256.809 156.073 256.109 155.513 255.363 155.14C254.336 154.627 253.356 154.253 252.423 154.02C248.969 152.9 246.799 152.153 245.913 151.78C244.793 151.267 243.743 150.613 242.763 149.82C240.803 148.187 239.823 145.993 239.823 143.24C239.823 140.44 240.943 138.06 243.183 136.1C245.516 134.047 248.806 133.02 253.053 133.02Z" fill="#F9F8F4"/>
<path d="M128.182 54.22L127.997 53.2371L127.986 53.2392L127.976 53.2414L128.182 54.22ZM124.192 55.06L123.986 54.0814L123.192 54.2486V55.06H124.192ZM124.192 100.07V101.07H125.192V100.07H124.192ZM118.382 98.88L117.589 99.4894L117.599 99.5027L117.61 99.5157L118.382 98.88ZM89.3316 61.08L90.1245 60.4706L87.9147 57.5953L88.3384 61.1968L89.3316 61.08ZM89.4716 94.96H88.4716V95.8273L89.3301 95.9499L89.4716 94.96ZM94.1616 95.8L94.3711 94.8222L94.3625 94.8204L94.1616 95.8ZM95.1416 100.07V101.07H96.1416V100.07H95.1416ZM78.4816 100.07H77.4816V101.07H78.4816V100.07ZM79.5316 95.8L79.7277 96.7806L79.7376 96.7785L79.5316 95.8ZM83.5216 94.96L83.7276 95.9385L84.5216 95.7714V94.96H83.5216ZM83.5216 55.06H84.5216V54.2301L83.7058 54.0771L83.5216 55.06ZM79.5316 54.22L79.8478 53.2713L79.7887 53.2516L79.7277 53.2394L79.5316 54.22ZM78.4816 49.88V48.88H77.4816V49.88H78.4816ZM88.3516 50.09L88.7988 49.1956L88.7988 49.1956L88.3516 50.09ZM89.4016 51L90.1952 50.3916L90.1552 50.3394L90.1087 50.2929L89.4016 51ZM118.382 88.8L117.588 89.4084L119.912 92.4393L119.372 88.6586L118.382 88.8ZM118.242 55.06H119.242V54.1885L118.378 54.0694L118.242 55.06ZM115.022 54.57L114.793 55.5434L114.82 55.5499L114.848 55.5548L115.022 54.57ZM113.622 54.22L113.938 53.2713L113.873 53.2497L113.806 53.2371L113.622 54.22ZM112.502 49.88V48.88H111.502V49.88H112.502ZM129.302 49.88H130.302V48.88H129.302V49.88ZM128.302 52.96C128.302 53.0469 128.29 53.0952 128.283 53.1163C128.279 53.1267 128.277 53.1317 128.276 53.1332C128.275 53.1346 128.275 53.1351 128.274 53.1356C128.274 53.1362 128.271 53.1393 128.264 53.1444C128.257 53.1496 128.245 53.158 128.224 53.1681C128.183 53.1888 128.111 53.2157 127.997 53.2371L128.366 55.2029C128.881 55.1063 129.391 54.8898 129.769 54.4644C130.156 54.0294 130.302 53.4924 130.302 52.96H128.302ZM127.976 53.2414L123.986 54.0814L124.398 56.0385L128.388 55.1985L127.976 53.2414ZM123.192 55.06V100.07H125.192V55.06H123.192ZM124.192 99.07H120.762V101.07H124.192V99.07ZM120.762 99.07C120.16 99.07 119.639 98.8334 119.153 98.2443L117.61 99.5157C118.431 100.513 119.497 101.07 120.762 101.07V99.07ZM119.174 98.2706L90.1245 60.4706L88.5387 61.6894L117.589 99.4894L119.174 98.2706ZM88.3384 61.1968C88.4251 61.9339 88.4716 62.9629 88.4716 64.3H90.4716C90.4716 62.9304 90.4247 61.8127 90.3247 60.9632L88.3384 61.1968ZM88.4716 64.3V94.96H90.4716V64.3H88.4716ZM89.3301 95.9499C90.6107 96.1329 92.1531 96.4088 93.9606 96.7796L94.3625 94.8204C92.53 94.4445 90.9458 94.1604 89.613 93.9701L89.3301 95.9499ZM93.952 96.7778C94.1091 96.8115 94.1222 96.8533 94.1072 96.8339C94.0963 96.82 94.1416 96.862 94.1416 97.06H96.1416C96.1416 96.558 96.0234 96.04 95.6859 95.6061C95.3442 95.1667 94.8673 94.9285 94.3711 94.8222L93.952 96.7778ZM94.1416 97.06V100.07H96.1416V97.06H94.1416ZM95.1416 99.07H78.4816V101.07H95.1416V99.07ZM79.4816 100.07V97.06H77.4816V100.07H79.4816ZM79.4816 97.06C79.4816 96.9672 79.4933 96.9127 79.5017 96.8858C79.5058 96.8726 79.5092 96.8656 79.5107 96.8628C79.5115 96.8614 79.512 96.8606 79.5121 96.8604C79.5122 96.8603 79.5123 96.8602 79.5123 96.8602C79.5123 96.8602 79.5123 96.8602 79.5123 96.8602C79.5123 96.8602 79.5123 96.8601 79.5124 96.8601C79.5125 96.86 79.5126 96.8598 79.5129 96.8595C79.5134 96.859 79.5145 96.858 79.5164 96.8565C79.5201 96.8535 79.5282 96.8476 79.5428 96.8399C79.5726 96.8239 79.63 96.8001 79.7277 96.7806L79.3354 94.8194C78.8306 94.9204 78.3366 95.1469 77.9758 95.5798C77.6132 96.015 77.4816 96.543 77.4816 97.06H79.4816ZM79.7376 96.7785L83.7276 95.9385L83.3156 93.9814L79.3256 94.8214L79.7376 96.7785ZM84.5216 94.96V55.06H82.5216V94.96H84.5216ZM83.7058 54.0771C81.4297 53.6503 80.186 53.384 79.8478 53.2713L79.2153 55.1687C79.7172 55.336 81.1334 55.6297 83.3373 56.0429L83.7058 54.0771ZM79.7277 53.2394C79.6355 53.221 79.5835 53.1982 79.5578 53.184C79.5348 53.1711 79.5294 53.1634 79.5289 53.1629C79.5281 53.1617 79.5178 53.1491 79.5066 53.111C79.4946 53.0703 79.4816 52.9999 79.4816 52.89H77.4816C77.4816 53.4156 77.6057 53.9544 77.9592 54.4021C78.3169 54.8552 78.8157 55.0966 79.3354 55.2006L79.7277 53.2394ZM79.4816 52.89V49.88H77.4816V52.89H79.4816ZM78.4816 50.88H87.0216V48.88H78.4816V50.88ZM87.0216 50.88C87.5924 50.88 87.8406 50.9526 87.9044 50.9844L88.7988 49.1956C88.3025 48.9474 87.6641 48.88 87.0216 48.88V50.88ZM87.9043 50.9844C87.8765 50.9705 87.9298 50.9964 88.0991 51.1432C88.2491 51.2732 88.4463 51.459 88.6945 51.7071L90.1087 50.2929C89.8435 50.0277 89.609 49.8052 89.409 49.6318C89.2283 49.4752 89.0133 49.3028 88.7988 49.1956L87.9043 50.9844ZM88.608 51.6084L117.588 89.4084L119.175 88.1916L90.1952 50.3916L88.608 51.6084ZM119.372 88.6586C119.289 88.0829 119.242 87.0266 119.242 85.44H117.242C117.242 87.0267 117.287 88.2105 117.392 88.9414L119.372 88.6586ZM119.242 85.44V55.06H117.242V85.44H119.242ZM118.378 54.0694C117.03 53.8834 115.971 53.7221 115.195 53.5852L114.848 55.5548C115.659 55.6979 116.746 55.8632 118.105 56.0506L118.378 54.0694ZM115.251 53.5966C114.856 53.5037 114.546 53.4291 114.319 53.3724C114.206 53.344 114.116 53.3208 114.048 53.3025C114.014 53.2934 113.987 53.286 113.967 53.2802C113.946 53.2741 113.938 53.2713 113.938 53.2713L113.305 55.1687C113.5 55.2336 114.025 55.3628 114.793 55.5434L115.251 53.5966ZM113.806 53.2371C113.692 53.2157 113.62 53.1888 113.579 53.1681C113.559 53.158 113.546 53.1496 113.539 53.1444C113.532 53.1393 113.53 53.1362 113.529 53.1356C113.528 53.1351 113.528 53.1346 113.527 53.1332C113.526 53.1317 113.524 53.1267 113.52 53.1163C113.513 53.0952 113.502 53.0469 113.502 52.96H111.502C111.502 53.4924 111.648 54.0294 112.034 54.4644C112.412 54.8898 112.922 55.1063 113.437 55.2029L113.806 53.2371ZM113.502 52.96V49.88H111.502V52.96H113.502ZM112.502 50.88H129.302V48.88H112.502V50.88ZM128.302 49.88V52.96H130.302V49.88H128.302ZM155.927 65.28L156.306 64.3544L156.299 64.3515L155.927 65.28ZM161.317 68.92L162.036 68.2242L162.035 68.2235L161.317 68.92ZM164.677 74.66L163.73 74.9819L163.733 74.9878L164.677 74.66ZM164.677 89.78L163.732 89.4522L163.73 89.4581L164.677 89.78ZM161.317 95.52L162.035 96.2165L162.036 96.2158L161.317 95.52ZM155.927 99.16L156.299 100.089L156.306 100.086L155.927 99.16ZM141.927 99.16L141.549 100.086L141.556 100.088L141.927 99.16ZM136.537 95.52L135.819 96.2154L135.82 96.2165L136.537 95.52ZM133.107 89.78L132.17 90.1287L132.17 90.1291L133.107 89.78ZM133.107 74.66L132.17 74.3109L132.17 74.3113L133.107 74.66ZM136.537 68.92L135.82 68.2235L135.819 68.2246L136.537 68.92ZM141.927 65.28L141.556 64.3515L141.549 64.3545L141.927 65.28ZM156.767 92.16L155.952 91.5802L155.948 91.5865L156.767 92.16ZM156.767 72.42L155.948 72.9935L155.952 72.9998L156.767 72.42ZM144.307 69.76L143.901 68.8462L143.895 68.8491L143.888 68.852L144.307 69.76ZM141.087 72.42L140.295 71.8103L140.287 71.82L140.28 71.83L141.087 72.42ZM139.127 76.62L138.16 76.3641L138.157 76.3775L139.127 76.62ZM139.127 87.96L138.157 88.2026L138.161 88.2159L139.127 87.96ZM141.087 92.16L140.28 92.75L140.283 92.7544L141.087 92.16ZM144.307 94.68L143.898 95.5925L143.906 95.5962L144.307 94.68ZM148.927 65.02C151.384 65.02 153.589 65.4217 155.556 66.2085L156.299 64.3515C154.066 63.4583 151.604 63.02 148.927 63.02V65.02ZM155.549 66.2055C157.475 66.9935 159.156 68.129 160.6 69.6165L162.035 68.2235C160.399 66.5376 158.486 65.2465 156.306 64.3545L155.549 66.2055ZM160.599 69.6158C161.925 70.985 162.976 72.7629 163.73 74.9819L165.624 74.3381C164.792 71.8904 163.602 69.8416 162.036 68.2242L160.599 69.6158ZM163.733 74.9878C164.485 77.1556 164.867 79.5631 164.867 82.22H166.867C166.867 79.3702 166.457 76.7377 165.622 74.3322L163.733 74.9878ZM164.867 82.22C164.867 84.8769 164.485 87.2844 163.733 89.4522L165.622 90.1078C166.457 87.7023 166.867 85.0698 166.867 82.22H164.867ZM163.73 89.4581C162.976 91.6771 161.925 93.455 160.599 94.8242L162.036 96.2158C163.602 94.5984 164.792 92.5495 165.624 90.1019L163.73 89.4581ZM160.6 94.8235C159.156 96.311 157.475 97.4465 155.549 98.2345L156.306 100.086C158.486 99.1935 160.399 97.9024 162.035 96.2165L160.6 94.8235ZM155.556 98.2315C153.589 99.0183 151.384 99.42 148.927 99.42V101.42C151.604 101.42 154.066 100.982 156.299 100.088L155.556 98.2315ZM148.927 99.42C146.471 99.42 144.266 99.0183 142.299 98.2315L141.556 100.088C143.789 100.982 146.25 101.42 148.927 101.42V99.42ZM142.306 98.2345C140.38 97.4465 138.699 96.311 137.255 94.8235L135.82 96.2165C137.456 97.9024 139.368 99.1935 141.549 100.086L142.306 98.2345ZM137.256 94.8246C135.973 93.4994 134.895 91.7143 134.044 89.4309L132.17 90.1291C133.093 92.6057 134.301 94.6473 135.819 96.2154L137.256 94.8246ZM134.044 89.4313C133.353 87.5722 132.987 85.1799 132.987 82.22H130.987C130.987 85.3267 131.368 87.9745 132.17 90.1287L134.044 89.4313ZM132.987 82.22C132.987 79.2601 133.353 76.8678 134.044 75.0087L132.17 74.3113C131.368 76.4655 130.987 79.1133 130.987 82.22H132.987ZM134.044 75.0091C134.895 72.7257 135.973 70.9406 137.256 69.6154L135.819 68.2246C134.301 69.7927 133.093 71.8343 132.17 74.3109L134.044 75.0091ZM137.255 69.6165C138.699 68.129 140.38 66.9935 142.306 66.2055L141.549 64.3545C139.368 65.2465 137.456 66.5376 135.82 68.2235L137.255 69.6165ZM142.299 66.2085C144.266 65.4217 146.471 65.02 148.927 65.02V63.02C146.25 63.02 143.789 63.4583 141.556 64.3515L142.299 66.2085ZM148.927 96.66C152.751 96.66 155.717 95.4039 157.587 92.7335L155.948 91.5865C154.551 93.5828 152.29 94.66 148.927 94.66V96.66ZM157.582 92.7398C159.468 90.0888 160.357 86.5715 160.357 82.29H158.357C158.357 86.3152 157.52 89.3779 155.952 91.5802L157.582 92.7398ZM160.357 82.29C160.357 78.0085 159.468 74.4912 157.582 71.8402L155.952 72.9998C157.52 75.2021 158.357 78.2648 158.357 82.29H160.357ZM157.587 71.8465C155.717 69.1761 152.751 67.92 148.927 67.92V69.92C152.29 69.92 154.551 70.9972 155.948 72.9935L157.587 71.8465ZM148.927 67.92C147.01 67.92 145.323 68.2143 143.901 68.8462L144.713 70.6738C145.812 70.1857 147.205 69.92 148.927 69.92V67.92ZM143.888 68.852C142.508 69.4891 141.312 70.4876 140.295 71.8103L141.88 73.0297C142.729 71.9257 143.68 71.1509 144.726 70.668L143.888 68.852ZM140.28 71.83C139.313 73.1527 138.609 74.6682 138.161 76.3641L140.094 76.8759C140.485 75.3984 141.088 74.114 141.895 73.01L140.28 71.83ZM138.157 76.3775C137.67 78.3249 137.427 80.3198 137.427 82.36H139.427C139.427 80.4802 139.651 78.6484 140.097 76.8625L138.157 76.3775ZM137.427 82.36C137.427 84.3109 137.671 86.259 138.157 88.2025L140.097 87.7175C139.65 85.9277 139.427 84.1424 139.427 82.36H137.427ZM138.161 88.2159C138.609 89.9118 139.313 91.4273 140.28 92.75L141.895 91.57C141.088 90.466 140.485 89.1816 140.094 87.7041L138.161 88.2159ZM140.283 92.7544C141.19 93.9809 142.406 94.9235 143.898 95.5925L144.716 93.7675C143.502 93.2231 142.572 92.4858 141.891 91.5656L140.283 92.7544ZM143.906 95.5962C145.523 96.3032 147.199 96.66 148.927 96.66V94.66C147.482 94.66 146.079 94.3634 144.708 93.7638L143.906 95.5962ZM176.18 98.18L175.473 98.8871L176.18 98.18ZM173.94 69.76H174.94V68.76H173.94V69.76ZM168.34 65.98L168.208 64.9887L167.34 65.1038V65.98H168.34ZM174.15 65.21L174.281 66.2013L175.044 66.1002L175.142 65.3364L174.15 65.21ZM175.55 54.22L176.542 54.3464L176.55 54.2834V54.22H175.55ZM175.97 53.38L176.524 54.2121L176.561 54.188L176.594 54.1609L175.97 53.38ZM180.1 53.1H181.1V52.1H180.1V53.1ZM180.1 65.28H179.1V66.28H180.1V65.28ZM190.25 65.28H191.25V64.28H190.25V65.28ZM190.25 69.83V70.83H191.25V69.83H190.25ZM180.1 69.83V68.83H179.1V69.83H180.1ZM185.77 95.24L186.044 96.2015L186.065 96.1956L186.086 96.1887L185.77 95.24ZM187.03 94.68L187.515 95.5542L187.551 95.5345L187.584 95.5121L187.03 94.68ZM187.45 94.4L186.895 93.568L187.45 94.4ZM187.87 94.12L187.422 93.2256L187.367 93.2534L187.315 93.2879L187.87 94.12ZM189.41 94.4L190.26 93.8736L190.258 93.87L189.41 94.4ZM191.23 97.34L191.878 98.1012L192.532 97.5441L192.08 96.8136L191.23 97.34ZM187.31 99.72L187.651 100.66L187.664 100.655L187.31 99.72ZM182.62 99.56C180.12 99.56 178.248 98.8344 176.887 97.4729L175.473 98.8871C177.284 100.699 179.706 101.56 182.62 101.56V99.56ZM176.887 97.4729C175.647 96.2332 174.94 94.2925 174.94 91.46H172.94C172.94 94.6008 173.726 97.1401 175.473 98.8871L176.887 97.4729ZM174.94 91.46V69.76H172.94V91.46H174.94ZM173.94 68.76H169.67V70.76H173.94V68.76ZM169.67 68.76C169.532 68.76 169.44 68.7444 169.384 68.7285C169.357 68.7207 169.34 68.7132 169.329 68.7081C169.319 68.7031 169.315 68.6998 169.314 68.6991L168.065 70.2609C168.535 70.6371 169.113 70.76 169.67 70.76V68.76ZM169.314 68.6991C169.38 68.7517 169.388 68.7964 169.376 68.7613C169.362 68.7195 169.34 68.618 169.34 68.43H167.34C167.34 69.0363 167.468 69.7833 168.065 70.2609L169.314 68.6991ZM169.34 68.43V65.98H167.34V68.43H169.34ZM168.471 66.9713L174.281 66.2013L174.018 64.2187L168.208 64.9887L168.471 66.9713ZM175.142 65.3364L176.542 54.3464L174.558 54.0936L173.158 65.0836L175.142 65.3364ZM176.55 54.22C176.55 54.189 176.553 54.1723 176.554 54.167C176.555 54.1623 176.554 54.1669 176.549 54.1772C176.547 54.1821 176.544 54.1874 176.54 54.1927C176.536 54.198 176.533 54.2027 176.529 54.2065C176.522 54.2144 176.519 54.2157 176.524 54.2121L175.415 52.5479C174.823 52.9427 174.55 53.5554 174.55 54.22H176.55ZM176.594 54.1609C176.595 54.1602 176.599 54.1569 176.609 54.1519C176.62 54.1468 176.637 54.1393 176.664 54.1315C176.72 54.1156 176.812 54.1 176.95 54.1V52.1C176.393 52.1 175.815 52.2229 175.345 52.5991L176.594 54.1609ZM176.95 54.1H180.1V52.1H176.95V54.1ZM179.1 53.1V65.28H181.1V53.1H179.1ZM180.1 66.28H190.25V64.28H180.1V66.28ZM189.25 65.28V69.83H191.25V65.28H189.25ZM190.25 68.83H180.1V70.83H190.25V68.83ZM179.1 69.83V91.11H181.1V69.83H179.1ZM179.1 91.11C179.1 92.7717 179.473 94.208 180.443 95.1771L181.857 93.7629C181.426 93.332 181.1 92.5283 181.1 91.11H179.1ZM180.443 95.1771C181.371 96.1053 182.605 96.52 184.02 96.52V94.52C183.008 94.52 182.329 94.2347 181.857 93.7629L180.443 95.1771ZM184.02 96.52C184.65 96.52 185.329 96.406 186.044 96.2015L185.495 94.2785C184.904 94.4473 184.416 94.52 184.02 94.52V96.52ZM186.086 96.1887C186.569 96.0276 187.046 95.815 187.515 95.5542L186.544 93.8058C186.174 94.0117 185.81 94.1724 185.453 94.2913L186.086 96.1887ZM187.584 95.5121C187.724 95.4187 187.864 95.3254 188.004 95.232L186.895 93.568C186.755 93.6613 186.615 93.7546 186.475 93.8479L187.584 95.5121ZM188.004 95.232C188.144 95.1387 188.284 95.0454 188.424 94.952L187.315 93.2879C187.175 93.3813 187.035 93.4746 186.895 93.568L188.004 95.232ZM188.317 95.0144C188.493 94.9266 188.616 94.8704 188.696 94.8385C188.736 94.8224 188.752 94.8181 188.748 94.819C188.746 94.8197 188.731 94.8238 188.707 94.8282C188.685 94.8322 188.636 94.84 188.57 94.84V92.84C188.407 92.84 188.269 92.876 188.199 92.896C188.114 92.9203 188.03 92.9509 187.953 92.9815C187.8 93.043 187.62 93.1268 187.422 93.2256L188.317 95.0144ZM188.57 94.84C188.555 94.84 188.534 94.8376 188.512 94.8308C188.49 94.824 188.476 94.8158 188.47 94.812C188.461 94.8064 188.498 94.8282 188.562 94.93L190.258 93.87C189.913 93.3179 189.357 92.84 188.57 92.84V94.84ZM188.559 94.9264L190.379 97.8664L192.08 96.8136L190.26 93.8736L188.559 94.9264ZM190.581 96.5788C189.396 97.5883 188.187 98.3177 186.955 98.785L187.664 100.655C189.139 100.096 190.543 99.2384 191.878 98.1012L190.581 96.5788ZM186.968 98.7802C185.534 99.3017 184.086 99.56 182.62 99.56V101.56C184.327 101.56 186.006 101.258 187.651 100.66L186.968 98.7802ZM57.9562 130.99V131.99H58.9562V130.99H57.9562ZM53.1263 129.8H52.1263V129.888L52.1415 129.974L53.1263 129.8ZM52.9163 128.19L51.9208 128.285L51.9233 128.312L51.9273 128.338L52.9163 128.19ZM52.5663 124.41L53.5621 124.319L53.4795 123.41H52.5663V124.41ZM32.6863 124.41V123.41H31.6863V124.41H32.6863ZM32.6863 141.98H31.6863V142.98H32.6863V141.98ZM51.7262 141.98H52.7262V140.98H51.7262V141.98ZM51.7262 147.44V148.44H52.7262V147.44H51.7262ZM32.6863 147.44V146.44H31.6863V147.44H32.6863ZM32.6863 163.96H31.6863V164.783L32.4935 164.941L32.6863 163.96ZM36.6063 164.73L36.4135 165.711L36.422 165.713L36.6063 164.73ZM37.7263 169V170H38.7263V169H37.7263ZM20.7863 169H19.7863V170H20.7863V169ZM21.8363 164.73L21.6468 163.748L21.6401 163.749L21.8363 164.73ZM25.8263 163.96L26.0157 164.942L26.8263 164.785V163.96H25.8263ZM25.8263 123.99H26.8263V123.16L26.0105 123.007L25.8263 123.99ZM21.8363 123.15L22.1525 122.201L22.0934 122.182L22.0324 122.169L21.8363 123.15ZM20.7863 118.88V117.88H19.7863V118.88H20.7863ZM57.9562 118.88H58.9562V117.88H57.9562V118.88ZM57.9562 129.99H54.5263V131.99H57.9562V129.99ZM54.5263 129.99C54.2955 129.99 54.2336 129.935 54.2289 129.931C54.2223 129.925 54.1535 129.867 54.111 129.626L52.1415 129.974C52.239 130.527 52.4735 131.063 52.9336 131.454C53.3956 131.847 53.9637 131.99 54.5263 131.99V129.99ZM54.1263 129.8C54.1263 129.651 54.0974 129.409 54.0654 129.163C54.0291 128.886 53.9756 128.511 53.9052 128.042L51.9273 128.338C51.997 128.803 52.0484 129.163 52.0821 129.422C52.1201 129.713 52.1263 129.809 52.1263 129.8H54.1263ZM53.9117 128.095C53.8186 127.117 53.7021 125.859 53.5621 124.319L51.5704 124.501C51.7104 126.041 51.8272 127.303 51.9208 128.285L53.9117 128.095ZM52.5663 123.41H32.6863V125.41H52.5663V123.41ZM31.6863 124.41V141.98H33.6863V124.41H31.6863ZM32.6863 142.98H51.7262V140.98H32.6863V142.98ZM50.7262 141.98V147.44H52.7262V141.98H50.7262ZM51.7262 146.44H32.6863V148.44H51.7262V146.44ZM31.6863 147.44V163.96H33.6863V147.44H31.6863ZM32.4935 164.941L36.4135 165.711L36.799 163.749L32.879 162.979L32.4935 164.941ZM36.422 165.713C36.5308 165.733 36.5973 165.759 36.6343 165.779C36.6689 165.797 36.6794 165.809 36.6813 165.812C36.6831 165.814 36.692 165.824 36.7021 165.856C36.7131 165.891 36.7263 165.955 36.7263 166.06H38.7263C38.7263 165.52 38.589 164.972 38.2112 164.523C37.8351 164.077 37.3195 163.846 36.7905 163.747L36.422 165.713ZM36.7263 166.06V169H38.7263V166.06H36.7263ZM37.7263 168H20.7863V170H37.7263V168ZM21.7863 169V166.06H19.7863V169H21.7863ZM21.7863 166.06C21.7863 165.95 21.7993 165.88 21.8112 165.839C21.8225 165.801 21.8328 165.788 21.8336 165.787C21.8341 165.787 21.8394 165.779 21.8625 165.766C21.8882 165.752 21.9402 165.729 22.0324 165.711L21.6401 163.749C21.1204 163.853 20.6216 164.095 20.2639 164.548C19.9104 164.996 19.7863 165.534 19.7863 166.06H21.7863ZM22.0257 165.712L26.0157 164.942L25.6368 162.978L21.6468 163.748L22.0257 165.712ZM26.8263 163.96V123.99H24.8263V163.96H26.8263ZM26.0105 123.007C23.7344 122.58 22.4906 122.314 22.1525 122.201L21.52 124.099C22.0219 124.266 23.4381 124.56 25.642 124.973L26.0105 123.007ZM22.0324 122.169C21.9402 122.151 21.8882 122.128 21.8625 122.114C21.8394 122.101 21.8341 122.093 21.8336 122.093C21.8328 122.092 21.8225 122.079 21.8112 122.041C21.7993 122 21.7863 121.93 21.7863 121.82H19.7863C19.7863 122.346 19.9104 122.884 20.2639 123.332C20.6216 123.785 21.1204 124.027 21.6401 124.131L22.0324 122.169ZM21.7863 121.82V118.88H19.7863V121.82H21.7863ZM20.7863 119.88H57.9562V117.88H20.7863V119.88ZM56.9562 118.88V130.99H58.9562V118.88H56.9562ZM92.3252 164.52L92.4666 163.53L91.3252 163.367V164.52H92.3252ZM93.0952 165.01L92.2631 165.565L92.2872 165.601L92.3143 165.635L93.0952 165.01ZM93.3752 168.86V169.86H94.3752V168.86H93.3752ZM84.6252 168.58L84.9414 167.631L84.9208 167.624L84.8999 167.618L84.6252 168.58ZM83.9252 167.46L82.9462 167.664L82.9474 167.67L83.9252 167.46ZM83.2252 164.1L84.2041 163.896L83.8663 162.275L82.5888 163.329L83.2252 164.1ZM80.4252 166.41L81.0609 167.182L81.0615 167.181L80.4252 166.41ZM77.6252 168.09L77.2264 167.173L77.2189 167.176L77.2114 167.18L77.6252 168.09ZM74.5452 169.14L74.3235 168.165L74.3131 168.167L74.3026 168.17L74.5452 169.14ZM66.9852 168.86L66.6507 169.802L66.658 169.805L66.9852 168.86ZM63.8352 167.18L64.5156 166.447L64.5076 166.44L64.4995 166.433L63.8352 167.18ZM61.7352 164.24L62.6432 163.821L62.6373 163.809L61.7352 164.24ZM62.0852 155.98L61.2355 155.453L61.2335 155.456L62.0852 155.98ZM65.8652 152.48L65.3667 151.613L65.3613 151.616L65.8652 152.48ZM72.5852 149.96L72.3664 148.984L72.359 148.986L72.5852 149.96ZM82.8052 149.05V150.05H83.8052V149.05H82.8052ZM80.9852 140.02L80.219 140.663L80.9852 140.02ZM71.8852 138.48L72.2441 139.413L72.2496 139.411L71.8852 138.48ZM69.2252 139.74L69.7799 140.572H69.7799L69.2252 139.74ZM68.2452 140.37L68.7413 141.238L68.7584 141.228L68.7752 141.218L68.2452 140.37ZM67.1952 141L66.6652 140.152L66.6354 140.171L66.607 140.191L67.1952 141ZM64.4652 141.28L63.825 142.048L63.8327 142.055L63.8405 142.061L64.4652 141.28ZM63.7652 140.44L64.6334 139.944L63.7652 140.44ZM62.6452 138.48L61.9473 137.764L61.3928 138.304L61.7769 138.976L62.6452 138.48ZM68.9452 134.28L69.3413 135.198L69.3439 135.197L68.9452 134.28ZM81.8252 133.86L81.4136 134.771L81.4215 134.775L81.8252 133.86ZM85.6752 136.52L84.9367 137.194L84.9445 137.203L84.9525 137.211L85.6752 136.52ZM88.0552 140.72L87.1039 141.029L87.1065 141.036L88.0552 140.72ZM88.8252 163.89H87.8252V164.703L88.6212 164.869L88.8252 163.89ZM92.3252 164.66L91.8779 165.554L93.3252 166.278V164.66H92.3252ZM82.6652 153.04H83.6652V152.04H82.6652V153.04ZM75.3852 153.53L75.2085 152.546L75.204 152.547L75.3852 153.53ZM70.4852 155L70.0843 154.084L70.0741 154.088L70.064 154.093L70.4852 155ZM67.6852 157.1L66.8682 156.523L66.8605 156.534L66.8531 156.545L67.6852 157.1ZM67.3352 162.14L66.4031 162.502L66.4067 162.511L67.3352 162.14ZM68.5952 163.82L67.9952 164.62L68.5952 163.82ZM70.4152 164.73L70.6973 163.771L70.6899 163.768L70.4152 164.73ZM75.6652 164.73L75.8868 165.705L75.8973 165.703L75.9077 165.7L75.6652 164.73ZM78.2552 163.82L77.8323 162.914L77.8294 162.915L78.2552 163.82ZM80.5652 162.28L79.9405 161.499L79.9327 161.505L79.925 161.512L80.5652 162.28ZM82.6652 160.32L83.3723 161.027L83.6652 160.734V160.32H82.6652ZM92.1837 165.51C92.2024 165.513 92.2133 165.516 92.2183 165.518C92.2231 165.519 92.2251 165.521 92.2258 165.521C92.2265 165.522 92.2295 165.524 92.2349 165.529C92.2405 165.535 92.2503 165.546 92.2631 165.565L93.9272 164.455C93.5863 163.944 93.0812 163.618 92.4666 163.53L92.1837 165.51ZM92.3143 165.635C92.3456 165.674 92.3752 165.728 92.3752 165.85H94.3752C94.3752 165.319 94.218 164.813 93.876 164.385L92.3143 165.635ZM92.3752 165.85V168.86H94.3752V165.85H92.3752ZM93.3752 167.86H86.0952V169.86H93.3752V167.86ZM86.0952 167.86C85.8165 167.86 85.4374 167.797 84.9414 167.631L84.3089 169.529C84.9329 169.737 85.5339 169.86 86.0952 169.86V167.86ZM84.8999 167.618C85.038 167.658 85.0786 167.741 85.0532 167.7C85.0213 167.649 84.9599 167.516 84.903 167.25L82.9474 167.67C83.0304 168.057 83.1557 168.438 83.3572 168.76C83.5651 169.093 83.8856 169.409 84.3504 169.542L84.8999 167.618ZM84.9041 167.256L84.2041 163.896L82.2462 164.304L82.9462 167.664L84.9041 167.256ZM82.5888 163.329L79.7888 165.639L81.0615 167.181L83.8615 164.871L82.5888 163.329ZM79.7895 165.638C79.0771 166.225 78.226 166.738 77.2264 167.173L78.0239 169.007C79.171 168.508 80.1865 167.902 81.0609 167.182L79.7895 165.638ZM77.2114 167.18C76.242 167.62 75.2796 167.948 74.3235 168.165L74.7668 170.115C75.864 169.866 76.9549 169.493 78.039 169L77.2114 167.18ZM74.3026 168.17C73.4831 168.375 72.3155 168.49 70.7652 168.49V170.49C72.3881 170.49 73.7406 170.372 74.7877 170.11L74.3026 168.17ZM70.7652 168.49C69.5678 168.49 68.4185 168.298 67.3123 167.915L66.658 169.805C67.9785 170.262 69.3492 170.49 70.7652 170.49V168.49ZM67.3196 167.918C65.9218 167.422 65.0217 166.917 64.5156 166.447L63.1547 167.913C63.9552 168.656 65.1551 169.272 66.6507 169.802L67.3196 167.918ZM64.4995 166.433C63.78 165.793 63.1561 164.932 62.6431 163.821L60.8272 164.659C61.4342 165.974 62.2103 167.074 63.1708 167.927L64.4995 166.433ZM62.6373 163.809C62.2107 162.917 61.9652 161.68 61.9652 160.04H59.9652C59.9652 161.854 60.2329 163.417 60.833 164.671L62.6373 163.809ZM61.9652 160.04C61.9652 158.722 62.2919 157.552 62.9368 156.504L61.2335 155.456C60.3851 156.835 59.9652 158.371 59.9652 160.04H61.9652ZM62.9348 156.507C63.6717 155.32 64.7992 154.26 66.369 153.344L65.3613 151.616C63.5711 152.66 62.1786 153.933 61.2355 155.453L62.9348 156.507ZM66.3636 153.347C68.1274 152.333 70.2711 151.524 72.8113 150.934L72.359 148.986C69.6726 149.61 67.3363 150.481 65.3667 151.613L66.3636 153.347ZM72.8039 150.936C75.4134 150.351 78.7405 150.05 82.8052 150.05V148.05C78.6565 148.05 75.1702 148.356 72.3664 148.984L72.8039 150.936ZM83.8052 149.05V146.32H81.8052V149.05H83.8052ZM83.8052 146.32C83.8052 143.437 83.1717 141.071 81.7513 139.377L80.219 140.663C81.2253 141.862 81.8052 143.697 81.8052 146.32H83.8052ZM81.7513 139.377C80.308 137.656 78.2489 136.85 75.7352 136.85V138.85C77.7947 138.85 79.2357 139.49 80.219 140.663L81.7513 139.377ZM75.7352 136.85C74.1522 136.85 72.7389 137.072 71.5208 137.549L72.2496 139.411C73.1781 139.048 74.3314 138.85 75.7352 138.85V136.85ZM71.5262 137.547C70.2952 138.02 69.3248 138.472 68.6705 138.908L69.7799 140.572C70.2455 140.262 71.0485 139.873 72.2441 139.413L71.5262 137.547ZM68.6705 138.908C68.4006 139.088 68.0825 139.292 67.7152 139.522L68.7752 141.218C69.1544 140.981 69.4897 140.766 69.7799 140.572L68.6705 138.908ZM67.749 139.502C67.4092 139.696 67.0478 139.913 66.6652 140.152L67.7252 141.848C68.0892 141.62 68.4278 141.417 68.7413 141.238L67.749 139.502ZM66.607 140.191C66.2408 140.458 65.9062 140.56 65.5852 140.56V142.56C66.3841 142.56 67.1229 142.289 67.7833 141.809L66.607 140.191ZM65.5852 140.56C65.3849 140.56 65.2487 140.541 65.1627 140.52C65.0769 140.498 65.0668 140.481 65.0899 140.499L63.8405 142.061C64.3395 142.46 64.9923 142.56 65.5852 142.56V140.56ZM65.1053 140.512C64.9199 140.357 64.7628 140.17 64.6334 139.944L62.8969 140.936C63.1408 141.363 63.4504 141.736 63.825 142.048L65.1053 140.512ZM64.6334 139.944L63.5134 137.984L61.7769 138.976L62.8969 140.936L64.6334 139.944ZM63.343 139.196C65.0738 137.51 67.071 136.178 69.3412 135.198L68.5491 133.362C66.0593 134.436 63.8565 135.904 61.9473 137.764L63.343 139.196ZM69.3439 135.197C71.3388 134.33 73.7175 133.88 76.5052 133.88V131.88C73.5061 131.88 70.8449 132.364 68.5464 133.363L69.3439 135.197ZM76.5052 133.88C78.5069 133.88 80.1309 134.192 81.4136 134.771L82.2367 132.949C80.6261 132.221 78.7034 131.88 76.5052 131.88V133.88ZM81.4215 134.775C82.9052 135.429 84.0667 136.241 84.9367 137.194L86.4136 135.846C85.3237 134.652 83.9184 133.691 82.2288 132.945L81.4215 134.775ZM84.9525 137.211C85.8546 138.154 86.5802 139.414 87.1039 141.029L89.0064 140.411C88.4101 138.573 87.549 137.032 86.3978 135.829L84.9525 137.211ZM87.1065 141.036C87.5775 142.449 87.8252 144.158 87.8252 146.18H89.8252C89.8252 144.002 89.5595 142.071 89.0038 140.404L87.1065 141.036ZM87.8252 146.18V163.89H89.8252V146.18H87.8252ZM88.6212 164.869C89.7402 165.102 90.5875 165.282 91.1653 165.409C91.4549 165.473 91.672 165.522 91.8199 165.558C91.8946 165.576 91.945 165.589 91.9754 165.597C92.0494 165.617 91.9725 165.602 91.8779 165.554L92.7724 163.766C92.6545 163.707 92.5207 163.673 92.5043 163.668C92.4443 163.652 92.3707 163.633 92.288 163.613C92.1209 163.573 91.8887 163.52 91.595 163.456C91.0061 163.326 90.1501 163.145 89.0291 162.911L88.6212 164.869ZM93.3252 164.66V164.52H91.3252V164.66H93.3252ZM82.6652 152.04C79.605 152.04 77.1118 152.204 75.2085 152.546L75.5618 154.514C77.2985 154.203 79.6587 154.04 82.6652 154.04V152.04ZM75.204 152.547C73.363 152.886 71.6551 153.397 70.0843 154.084L70.886 155.916C72.3019 155.297 73.8607 154.828 75.5663 154.513L75.204 152.547ZM70.064 154.093C68.6701 154.74 67.5663 155.534 66.8682 156.523L68.5021 157.677C68.924 157.079 69.6869 156.473 70.9063 155.907L70.064 154.093ZM66.8531 156.545C66.193 157.536 65.8452 158.613 65.8452 159.76H67.8452C67.8452 159.04 68.0574 158.344 68.5172 157.655L66.8531 156.545ZM65.8452 159.76C65.8452 160.653 66.0406 161.57 66.4032 162.502L68.2672 161.778C67.9764 161.03 67.8452 160.36 67.8452 159.76H65.8452ZM66.4067 162.511C66.7493 163.368 67.2771 164.081 67.9952 164.62L69.1952 163.02C68.7932 162.719 68.481 162.312 68.2636 161.769L66.4067 162.511ZM67.9952 164.62C68.6498 165.111 69.3662 165.47 70.1404 165.692L70.6899 163.768C70.1575 163.616 69.6605 163.369 69.1952 163.02L67.9952 164.62ZM70.133 165.689C71.0082 165.947 71.8733 166.08 72.7252 166.08V164.08C72.0836 164.08 71.4088 163.98 70.6973 163.771L70.133 165.689ZM72.7252 166.08C73.7418 166.08 74.7965 165.953 75.8868 165.705L75.4435 163.755C74.4805 163.974 73.5751 164.08 72.7252 164.08V166.08ZM75.9077 165.7C76.8981 165.453 77.8234 165.128 78.681 164.725L77.8294 162.915C77.1002 163.258 76.2989 163.541 75.4226 163.76L75.9077 165.7ZM78.678 164.726C79.481 164.351 80.3242 163.783 81.2053 163.048L79.925 161.512C79.1261 162.177 78.4293 162.635 77.8323 162.914L78.678 164.726ZM81.1899 163.061C81.703 162.65 82.4362 161.963 83.3723 161.027L81.958 159.613C81.0274 160.544 80.3607 161.163 79.9405 161.499L81.1899 163.061ZM83.6652 160.32V153.04H81.6652V160.32H83.6652ZM108.404 138.55H107.404V141.373L109.181 139.179L108.404 138.55ZM124.294 135.05L123.622 135.791L123.624 135.792L124.294 135.05ZM127.514 140.44L126.558 140.733L127.38 143.419L128.44 140.817L127.514 140.44ZM132.134 134.84L131.642 133.969L131.633 133.974L131.625 133.979L132.134 134.84ZM143.754 133.93L143.397 134.864L143.403 134.866L143.754 133.93ZM147.534 136.52L146.783 137.181L147.534 136.52ZM150.614 163.96H149.614V164.796L150.437 164.944L150.614 163.96ZM154.674 164.8L154.323 165.736L154.398 165.765L154.478 165.781L154.674 164.8ZM155.724 169.14V170.14H156.724V169.14H155.724ZM144.454 169.14H143.454V170.14H144.454V169.14ZM142.634 140.23L143.378 139.562L143.376 139.56L142.634 140.23ZM131.994 140.16L131.287 139.453L131.994 140.16ZM129.684 163.96H128.684V164.741L129.441 164.93L129.684 163.96ZM130.874 164.24L131.099 163.266L130.874 164.24ZM133.674 164.8L133.87 163.819L133.863 163.818L133.856 163.817L133.674 164.8ZM134.724 169.07V170.07H135.724V169.07H134.724ZM123.454 169.07H122.454V170.07H123.454V169.07ZM108.824 142.68L108.033 142.069L107.824 142.339V142.68H108.824ZM108.824 163.96H107.824V164.792L108.642 164.943L108.824 163.96ZM110.714 164.31L110.91 163.329L110.903 163.328L110.896 163.327L110.714 164.31ZM112.814 164.73L112.618 165.711L112.814 164.73ZM113.864 169V170H114.864V169H113.864ZM97.5538 169H96.5538V170H97.5538V169ZM98.5338 164.73L98.3475 163.748L98.3359 163.75L98.3243 163.752L98.5338 164.73ZM102.594 163.96L102.78 164.942L103.594 164.788V163.96H102.594ZM102.594 138.69H103.594V137.854L102.771 137.706L102.594 138.69ZM98.5338 137.85L98.8849 136.914L98.8157 136.888L98.7434 136.872L98.5338 137.85ZM97.5538 133.58V132.58H96.5538V133.58H97.5538ZM107.914 134.84L108.905 134.707L108.892 134.613L108.863 134.524L107.914 134.84ZM108.404 138.48H109.404V138.413L109.395 138.347L108.404 138.48ZM109.181 139.179C112.037 135.654 115.111 134.02 118.414 134.02V132.02C114.343 132.02 110.744 134.072 107.627 137.921L109.181 139.179ZM118.414 134.02C120.646 134.02 122.349 134.637 123.622 135.791L124.965 134.309C123.252 132.756 121.035 132.02 118.414 132.02V134.02ZM123.624 135.792C124.909 136.953 125.899 138.58 126.558 140.733L128.47 140.147C127.729 137.727 126.572 135.761 124.964 134.308L123.624 135.792ZM128.44 140.817C129.396 138.47 130.803 136.788 132.643 135.701L131.625 133.979C129.358 135.319 127.685 137.37 126.588 140.063L128.44 140.817ZM132.626 135.711C134.661 134.561 136.545 134.02 138.294 134.02V132.02C136.122 132.02 133.9 132.693 131.642 133.969L132.626 135.711ZM138.294 134.02C140.25 134.02 141.945 134.309 143.397 134.864L144.111 132.996C142.389 132.338 140.444 132.02 138.294 132.02V134.02ZM143.403 134.866C144.746 135.37 145.868 136.141 146.783 137.181L148.285 135.859C147.146 134.566 145.748 133.61 144.105 132.994L143.403 134.866ZM146.783 137.181C148.624 139.272 149.614 142.317 149.614 146.46H151.614C151.614 142.016 150.551 138.435 148.285 135.859L146.783 137.181ZM149.614 146.46V163.96H151.614V146.46H149.614ZM150.437 164.944C151.6 165.154 152.512 165.327 153.176 165.464C153.874 165.609 154.223 165.699 154.323 165.736L155.025 163.864C154.751 163.761 154.237 163.641 153.581 163.506C152.892 163.363 151.961 163.186 150.791 162.976L150.437 164.944ZM154.478 165.781C154.575 165.8 154.633 165.824 154.663 165.84C154.677 165.848 154.685 165.854 154.689 165.856C154.691 165.858 154.692 165.859 154.692 165.86C154.693 165.86 154.693 165.86 154.693 165.86C154.693 165.86 154.693 165.86 154.693 165.86C154.693 165.86 154.693 165.86 154.693 165.86C154.693 165.86 154.693 165.86 154.693 165.86C154.693 165.861 154.694 165.861 154.695 165.863C154.696 165.866 154.7 165.873 154.704 165.886C154.712 165.913 154.724 165.967 154.724 166.06H156.724C156.724 165.543 156.592 165.015 156.23 164.58C155.869 164.147 155.375 163.92 154.87 163.819L154.478 165.781ZM154.724 166.06V169.14H156.724V166.06H154.724ZM155.724 168.14H144.454V170.14H155.724V168.14ZM145.454 169.14V146.53H143.454V169.14H145.454ZM145.454 146.53C145.454 143.57 144.828 141.179 143.378 139.562L141.889 140.898C142.867 141.988 143.454 143.796 143.454 146.53H145.454ZM143.376 139.56C141.851 137.871 139.79 137.06 137.314 137.06V139.06C139.317 139.06 140.804 139.696 141.892 140.9L143.376 139.56ZM137.314 137.06C134.927 137.06 132.891 137.849 131.287 139.453L132.701 140.867C133.897 139.671 135.408 139.06 137.314 139.06V137.06ZM131.287 139.453C129.519 141.22 128.684 143.597 128.684 146.46H130.684C130.684 144.003 131.388 142.18 132.701 140.867L131.287 139.453ZM128.684 146.46V163.96H130.684V146.46H128.684ZM129.441 164.93C129.638 164.979 130.044 165.075 130.649 165.214L131.099 163.266C130.49 163.125 130.103 163.034 129.926 162.99L129.441 164.93ZM130.649 165.214C131.278 165.36 132.229 165.549 133.492 165.783L133.856 163.817C132.599 163.584 131.683 163.4 131.099 163.266L130.649 165.214ZM133.478 165.781C133.575 165.8 133.633 165.824 133.663 165.84C133.677 165.848 133.685 165.854 133.689 165.856C133.691 165.858 133.692 165.859 133.692 165.86C133.693 165.86 133.693 165.86 133.693 165.86C133.693 165.86 133.693 165.86 133.693 165.86C133.693 165.86 133.693 165.86 133.693 165.86C133.693 165.86 133.693 165.86 133.693 165.86C133.693 165.861 133.694 165.861 133.695 165.863C133.696 165.866 133.7 165.873 133.704 165.886C133.712 165.913 133.724 165.967 133.724 166.06H135.724C135.724 165.543 135.592 165.015 135.23 164.58C134.869 164.147 134.375 163.92 133.87 163.819L133.478 165.781ZM133.724 166.06V169.07H135.724V166.06H133.724ZM134.724 168.07H123.454V170.07H134.724V168.07ZM124.454 169.07V146.46H122.454V169.07H124.454ZM124.454 146.46C124.454 143.553 123.877 141.188 122.555 139.535C121.198 137.84 119.195 137.06 116.734 137.06V139.06C118.753 139.06 120.109 139.68 120.993 140.785C121.911 141.932 122.454 143.767 122.454 146.46H124.454ZM116.734 137.06C113.432 137.06 110.532 138.834 108.033 142.069L109.615 143.291C111.876 140.366 114.249 139.06 116.734 139.06V137.06ZM107.824 142.68V163.96H109.824V142.68H107.824ZM108.642 164.943L110.532 165.293L110.896 163.327L109.006 162.977L108.642 164.943ZM110.518 165.291L112.618 165.711L113.01 163.749L110.91 163.329L110.518 165.291ZM112.618 165.711C112.71 165.729 112.762 165.752 112.788 165.766C112.811 165.779 112.816 165.787 112.816 165.787C112.817 165.788 112.828 165.801 112.839 165.839C112.851 165.88 112.864 165.95 112.864 166.06H114.864C114.864 165.534 114.74 164.996 114.386 164.548C114.029 164.095 113.53 163.853 113.01 163.749L112.618 165.711ZM112.864 166.06V169H114.864V166.06H112.864ZM113.864 168H97.5538V170H113.864V168ZM98.5538 169V166.06H96.5538V169H98.5538ZM98.5538 166.06C98.5538 165.945 98.5666 165.868 98.5794 165.822C98.5916 165.777 98.6033 165.762 98.6039 165.761C98.6047 165.76 98.605 165.759 98.6056 165.759C98.6063 165.758 98.6093 165.755 98.6166 165.751C98.631 165.743 98.6686 165.724 98.7434 165.708L98.3243 163.752C97.8122 163.862 97.3314 164.116 96.9938 164.574C96.6656 165.02 96.5538 165.548 96.5538 166.06H98.5538ZM98.7202 165.712L102.78 164.942L102.407 162.978L98.3475 163.748L98.7202 165.712ZM103.594 163.96V138.69H101.594V163.96H103.594ZM102.771 137.706C101.608 137.496 100.696 137.323 100.031 137.186C99.3338 137.041 98.9845 136.951 98.8849 136.914L98.1827 138.786C98.4565 138.889 98.9705 139.009 99.6262 139.144C100.315 139.287 101.247 139.464 102.417 139.674L102.771 137.706ZM98.7434 136.872C98.6686 136.856 98.631 136.837 98.6166 136.829C98.6093 136.825 98.6063 136.822 98.6056 136.821C98.605 136.821 98.6047 136.82 98.6039 136.819C98.6033 136.818 98.5916 136.803 98.5794 136.758C98.5666 136.712 98.5538 136.635 98.5538 136.52H96.5538C96.5538 137.032 96.6656 137.56 96.9938 138.006C97.3314 138.464 97.8122 138.718 98.3243 138.828L98.7434 136.872ZM98.5538 136.52V133.58H96.5538V136.52H98.5538ZM97.5538 134.58H106.234V132.58H97.5538V134.58ZM106.234 134.58C106.482 134.58 106.609 134.639 106.684 134.695C106.763 134.754 106.872 134.878 106.965 135.156L108.863 134.524C108.675 133.962 108.365 133.456 107.884 133.095C107.398 132.731 106.826 132.58 106.234 132.58V134.58ZM106.923 134.973L107.413 138.613L109.395 138.347L108.905 134.707L106.923 134.973ZM107.404 138.48V138.55H109.404V138.48H107.404ZM182.929 134.28L183.308 133.354L183.301 133.352L182.929 134.28ZM188.319 137.92L189.037 137.224L189.037 137.224L188.319 137.92ZM191.679 143.66L190.732 143.982L190.734 143.988L191.679 143.66ZM191.679 158.78L190.734 158.452L190.732 158.458L191.679 158.78ZM188.319 164.52L189.037 165.216L189.037 165.216L188.319 164.52ZM182.929 168.16L183.301 169.089L183.308 169.086L182.929 168.16ZM168.929 168.16L168.551 169.086L168.558 169.088L168.929 168.16ZM163.539 164.52L162.821 165.215L162.822 165.216L163.539 164.52ZM160.109 158.78L159.172 159.129L159.172 159.129L160.109 158.78ZM160.109 143.66L159.172 143.311L159.172 143.311L160.109 143.66ZM163.539 137.92L162.822 137.224L162.821 137.225L163.539 137.92ZM168.929 134.28L168.558 133.351L168.551 133.354L168.929 134.28ZM183.769 161.16L182.954 160.58L182.95 160.587L183.769 161.16ZM183.769 141.42L182.95 141.993L182.954 142L183.769 141.42ZM171.309 138.76L170.903 137.846L170.897 137.849L170.89 137.852L171.309 138.76ZM168.089 141.42L167.297 140.81L167.289 140.82L167.282 140.83L168.089 141.42ZM166.129 145.62L165.162 145.364L165.159 145.377L166.129 145.62ZM166.129 156.96L165.159 157.203L165.163 157.216L166.129 156.96ZM168.089 161.16L167.282 161.75L167.285 161.754L168.089 161.16ZM171.309 163.68L170.9 164.593L170.908 164.596L171.309 163.68ZM175.929 134.02C178.386 134.02 180.591 134.422 182.558 135.208L183.301 133.352C181.068 132.458 178.606 132.02 175.929 132.02V134.02ZM182.551 135.206C184.477 135.994 186.158 137.129 187.602 138.616L189.037 137.224C187.4 135.538 185.488 134.246 183.308 133.354L182.551 135.206ZM187.601 138.616C188.927 139.985 189.978 141.763 190.732 143.982L192.626 143.338C191.794 140.89 190.604 138.842 189.037 137.224L187.601 138.616ZM190.734 143.988C191.487 146.156 191.869 148.563 191.869 151.22H193.869C193.869 148.37 193.459 145.738 192.624 143.332L190.734 143.988ZM191.869 151.22C191.869 153.877 191.487 156.284 190.734 158.452L192.624 159.108C193.459 156.702 193.869 154.07 193.869 151.22H191.869ZM190.732 158.458C189.978 160.677 188.927 162.455 187.601 163.824L189.037 165.216C190.604 163.598 191.794 161.55 192.626 159.102L190.732 158.458ZM187.602 163.824C186.158 165.311 184.477 166.446 182.551 167.234L183.308 169.086C185.488 168.194 187.4 166.902 189.037 165.216L187.602 163.824ZM182.558 167.232C180.591 168.018 178.386 168.42 175.929 168.42V170.42C178.606 170.42 181.068 169.982 183.301 169.088L182.558 167.232ZM175.929 168.42C173.473 168.42 171.268 168.018 169.301 167.232L168.558 169.088C170.791 169.982 173.252 170.42 175.929 170.42V168.42ZM169.308 167.234C167.382 166.446 165.7 165.311 164.257 163.824L162.822 165.216C164.458 166.902 166.37 168.194 168.551 169.086L169.308 167.234ZM164.258 163.825C162.975 162.499 161.897 160.714 161.046 158.431L159.172 159.129C160.095 161.606 161.303 163.647 162.821 165.215L164.258 163.825ZM161.046 158.431C160.355 156.572 159.989 154.18 159.989 151.22H157.989C157.989 154.327 158.37 156.974 159.172 159.129L161.046 158.431ZM159.989 151.22C159.989 148.26 160.355 145.868 161.046 144.009L159.172 143.311C158.37 145.466 157.989 148.113 157.989 151.22H159.989ZM161.046 144.009C161.897 141.726 162.975 139.941 164.258 138.615L162.821 137.225C161.303 138.793 160.095 140.834 159.172 143.311L161.046 144.009ZM164.257 138.616C165.7 137.129 167.382 135.994 169.308 135.206L168.551 133.354C166.37 134.246 164.458 135.538 162.822 137.224L164.257 138.616ZM169.301 135.208C171.268 134.422 173.473 134.02 175.929 134.02V132.02C173.252 132.02 170.791 132.458 168.558 133.352L169.301 135.208ZM175.929 165.66C179.753 165.66 182.719 164.404 184.588 161.733L182.95 160.587C181.553 162.583 179.292 163.66 175.929 163.66V165.66ZM184.584 161.74C186.47 159.089 187.359 155.572 187.359 151.29H185.359C185.359 155.315 184.521 158.378 182.954 160.58L184.584 161.74ZM187.359 151.29C187.359 147.008 186.47 143.491 184.584 140.84L182.954 142C184.521 144.202 185.359 147.265 185.359 151.29H187.359ZM184.588 140.847C182.719 138.176 179.753 136.92 175.929 136.92V138.92C179.292 138.92 181.553 139.997 182.95 141.993L184.588 140.847ZM175.929 136.92C174.012 136.92 172.325 137.214 170.903 137.846L171.715 139.674C172.814 139.186 174.207 138.92 175.929 138.92V136.92ZM170.89 137.852C169.51 138.489 168.314 139.488 167.297 140.81L168.882 142.03C169.731 140.926 170.682 140.151 171.728 139.668L170.89 137.852ZM167.282 140.83C166.315 142.153 165.611 143.668 165.163 145.364L167.096 145.876C167.487 144.398 168.09 143.114 168.897 142.01L167.282 140.83ZM165.159 145.377C164.672 147.325 164.429 149.32 164.429 151.36H166.429C166.429 149.48 166.653 147.648 167.099 145.863L165.159 145.377ZM164.429 151.36C164.429 153.311 164.673 155.259 165.159 157.203L167.099 156.717C166.652 154.928 166.429 153.142 166.429 151.36H164.429ZM165.163 157.216C165.611 158.912 166.315 160.427 167.282 161.75L168.897 160.57C168.09 159.466 167.487 158.182 167.096 156.704L165.163 157.216ZM167.285 161.754C168.192 162.981 169.408 163.924 170.9 164.593L171.718 162.767C170.504 162.223 169.574 161.486 168.893 160.566L167.285 161.754ZM170.908 164.596C172.525 165.303 174.201 165.66 175.929 165.66V163.66C174.484 163.66 173.081 163.363 171.71 162.764L170.908 164.596ZM214.172 164.66H213.172V165.66H214.172V164.66ZM223.762 159.76L224.51 160.423L224.762 160.139V159.76H223.762ZM223.762 138.76H224.762V138.039L224.078 137.811L223.762 138.76ZM219.772 137.92L219.576 138.901L219.587 138.903L219.772 137.92ZM218.722 133.58V132.58H217.722V133.58H218.722ZM229.992 133.58H230.992V132.58H229.992V133.58ZM229.992 163.96H228.992V164.79L229.807 164.943L229.992 163.96ZM233.982 164.8L233.665 165.749L233.724 165.768L233.786 165.781L233.982 164.8ZM235.032 169.07V170.07H236.032V169.07H235.032ZM224.602 167.74L223.61 167.869L223.621 167.957L223.648 168.041L224.602 167.74ZM224.112 163.96L225.103 163.831L224.821 161.656L223.364 163.296L224.112 163.96ZM203.532 165.92L202.762 166.559L202.769 166.567L203.532 165.92ZM200.452 138.69H201.452V137.867L200.644 137.709L200.452 138.69ZM196.532 137.85L196.819 136.892L196.768 136.877L196.716 136.867L196.532 137.85ZM195.412 133.58V132.58H194.412V133.58H195.412ZM206.752 133.58H207.752V132.58H206.752V133.58ZM208.572 162.42L207.816 163.075L207.818 163.077L208.572 162.42ZM214.172 164.59H215.172V163.59H214.172V164.59ZM214.172 165.66C218.026 165.66 221.478 163.847 224.51 160.423L223.013 159.097C220.259 162.206 217.317 163.66 214.172 163.66V165.66ZM224.762 159.76V138.76H222.762V159.76H224.762ZM224.078 137.811C223.576 137.644 222.16 137.35 219.956 136.937L219.587 138.903C221.864 139.33 223.107 139.596 223.445 139.709L224.078 137.811ZM219.968 136.939C219.876 136.921 219.824 136.898 219.798 136.884C219.775 136.871 219.769 136.863 219.769 136.863C219.768 136.862 219.758 136.849 219.747 136.811C219.735 136.77 219.722 136.7 219.722 136.59H217.722C217.722 137.116 217.846 137.654 218.199 138.102C218.557 138.555 219.056 138.797 219.576 138.901L219.968 136.939ZM219.722 136.59V133.58H217.722V136.59H219.722ZM218.722 134.58H229.992V132.58H218.722V134.58ZM228.992 133.58V163.96H230.992V133.58H228.992ZM229.807 164.943C232.084 165.37 233.327 165.636 233.665 165.749L234.298 163.851C233.796 163.684 232.38 163.39 230.176 162.977L229.807 164.943ZM233.786 165.781C233.883 165.8 233.941 165.824 233.97 165.84C233.985 165.848 233.993 165.854 233.997 165.856C233.999 165.858 234 165.859 234 165.86C234.001 165.86 234.001 165.86 234.001 165.86C234.001 165.86 234.001 165.86 234.001 165.86C234.001 165.86 234.001 165.86 234.001 165.86C234.001 165.86 234.001 165.86 234.001 165.86C234.001 165.861 234.002 165.861 234.003 165.863C234.004 165.866 234.007 165.873 234.012 165.886C234.02 165.913 234.032 165.967 234.032 166.06H236.032C236.032 165.543 235.9 165.015 235.537 164.58C235.177 164.147 234.683 163.92 234.178 163.819L233.786 165.781ZM234.032 166.06V169.07H236.032V166.06H234.032ZM235.032 168.07H226.282V170.07H235.032V168.07ZM226.282 168.07C226.046 168.07 225.926 168.012 225.852 167.953C225.77 167.888 225.653 167.749 225.555 167.439L223.648 168.041C223.83 168.618 224.133 169.143 224.611 169.522C225.097 169.907 225.678 170.07 226.282 170.07V168.07ZM225.593 167.611L225.103 163.831L223.12 164.089L223.61 167.869L225.593 167.611ZM223.364 163.296C220.167 166.893 216.507 168.63 212.352 168.63V170.63C217.156 170.63 221.336 168.587 224.859 164.624L223.364 163.296ZM212.352 168.63C208.811 168.63 206.172 167.484 204.294 165.273L202.769 166.567C205.092 169.302 208.332 170.63 212.352 170.63V168.63ZM204.301 165.281C202.431 163.028 201.452 160.03 201.452 156.19H199.452C199.452 160.377 200.526 163.865 202.762 166.559L204.301 165.281ZM201.452 156.19V138.69H199.452V156.19H201.452ZM200.644 137.709C198.475 137.284 197.227 137.015 196.819 136.892L196.244 138.808C196.77 138.965 198.135 139.256 200.26 139.671L200.644 137.709ZM196.716 136.867C196.607 136.847 196.541 136.821 196.504 136.801C196.469 136.783 196.458 136.771 196.457 136.768C196.455 136.766 196.446 136.756 196.436 136.724C196.425 136.689 196.412 136.625 196.412 136.52H194.412C194.412 137.06 194.549 137.608 194.927 138.057C195.303 138.503 195.818 138.734 196.347 138.833L196.716 136.867ZM196.412 136.52V133.58H194.412V136.52H196.412ZM195.412 134.58H206.752V132.58H195.412V134.58ZM205.752 133.58V156.12H207.752V133.58H205.752ZM205.752 156.12C205.752 159.042 206.382 161.42 207.816 163.075L209.327 161.765C208.335 160.62 207.752 158.798 207.752 156.12H205.752ZM207.818 163.077C209.319 164.801 211.499 165.59 214.172 165.59V163.59C211.898 163.59 210.344 162.932 209.326 161.763L207.818 163.077ZM213.172 164.59V164.66H215.172V164.59H213.172ZM262.293 134.91H263.293V134.192L262.613 133.963L262.293 134.91ZM262.293 144.01V145.01H263.293V144.01H262.293ZM258.373 143.03L257.377 143.121L257.382 143.181L257.395 143.24L258.373 143.03ZM257.953 138.41L258.949 138.319L258.883 137.601L258.181 137.436L257.953 138.41ZM247.593 139.18L248.207 139.969L248.211 139.966L247.593 139.18ZM246.543 145.06L247.297 144.404L247.275 144.378L247.25 144.353L246.543 145.06ZM250.603 147.51L250.302 148.464L250.309 148.466L250.315 148.468L250.603 147.51ZM252.703 148.14L252.415 149.098L252.438 149.105L252.46 149.11L252.703 148.14ZM254.943 148.84L255.294 147.904L255.277 147.897L255.259 147.891L254.943 148.84ZM258.303 150.1L257.952 151.036L257.962 151.04L257.972 151.044L258.303 150.1ZM261.243 151.92L260.589 152.677L260.608 152.693L260.628 152.708L261.243 151.92ZM260.683 166.2L260.023 165.448L260.019 165.452L260.683 166.2ZM239.823 167.6H238.823V168.321L239.507 168.549L239.823 167.6ZM239.823 158.36V157.36H238.823V158.36H239.823ZM243.393 159.2L244.388 159.107L244.381 159.031L244.363 158.957L243.393 159.2ZM243.813 163.68L242.817 163.773L242.869 164.326L243.366 164.574L243.813 163.68ZM256.483 163.33L257.123 164.098L257.134 164.089L257.145 164.079L256.483 163.33ZM257.463 156.82L256.71 157.479L256.719 157.489L256.728 157.498L257.463 156.82ZM255.363 155.14L254.916 156.034L255.363 155.14ZM252.423 154.02L252.114 154.971L252.147 154.982L252.18 154.99L252.423 154.02ZM245.913 151.78L245.496 152.689L245.51 152.696L245.525 152.702L245.913 151.78ZM242.763 149.82L242.123 150.588L242.128 150.593L242.134 150.597L242.763 149.82ZM243.183 136.1L243.841 136.853L243.843 136.851L243.183 136.1ZM253.053 134.02C255.324 134.02 258.287 134.613 261.973 135.857L262.613 133.963C258.832 132.687 255.635 132.02 253.053 132.02V134.02ZM261.293 134.91V144.01H263.293V134.91H261.293ZM262.293 143.01H259.563V145.01H262.293V143.01ZM259.563 143.01C259.404 143.01 259.386 142.973 259.411 142.993C259.433 143.011 259.388 142.993 259.351 142.82L257.395 143.24C257.498 143.72 257.721 144.192 258.14 144.537C258.561 144.884 259.068 145.01 259.563 145.01V143.01ZM259.369 142.939L258.949 138.319L256.957 138.501L257.377 143.121L259.369 142.939ZM258.181 137.436C255.949 136.914 254.046 136.64 252.493 136.64V138.64C253.833 138.64 255.57 138.879 257.725 139.384L258.181 137.436ZM252.493 136.64H252.423V138.64H252.493V136.64ZM252.423 136.64C250.321 136.64 248.484 137.208 246.975 138.394L248.211 139.966C249.315 139.099 250.698 138.64 252.423 138.64V136.64ZM246.979 138.391C245.571 139.486 244.703 140.821 244.703 142.4H246.703C246.703 141.646 247.095 140.834 248.207 139.969L246.979 138.391ZM244.703 142.4C244.703 143.74 245.009 144.94 245.836 145.767L247.25 144.353C246.957 144.06 246.703 143.486 246.703 142.4H244.703ZM245.788 145.716C246.874 146.965 248.406 147.865 250.302 148.464L250.904 146.556C249.253 146.035 248.078 145.302 247.297 144.404L245.788 145.716ZM250.315 148.468L252.415 149.098L252.99 147.182L250.89 146.552L250.315 148.468ZM252.46 149.11C252.79 149.193 253.5 149.413 254.627 149.789L255.259 147.891C254.146 147.52 253.362 147.274 252.945 147.17L252.46 149.11ZM254.592 149.776L257.952 151.036L258.654 149.164L255.294 147.904L254.592 149.776ZM257.972 151.044C258.752 151.317 259.625 151.844 260.589 152.677L261.896 151.163C260.808 150.223 259.72 149.537 258.633 149.156L257.972 151.044ZM260.628 152.708C262.277 153.996 263.113 155.747 263.113 158.08H265.113C265.113 155.186 264.035 152.831 261.858 151.132L260.628 152.708ZM263.113 158.08C263.113 161.237 262.066 163.656 260.023 165.448L261.342 166.952C263.873 164.731 265.113 161.736 265.113 158.08H263.113ZM260.019 165.452C257.755 167.46 254.876 168.49 251.303 168.49V170.49C255.29 170.49 258.664 169.327 261.346 166.948L260.019 165.452ZM251.303 168.49C247.54 168.49 243.82 167.878 240.139 166.651L239.507 168.549C243.386 169.842 247.319 170.49 251.303 170.49V168.49ZM240.823 167.6V158.36H238.823V167.6H240.823ZM239.823 159.36H242.343V157.36H239.823V159.36ZM242.343 159.36C242.4 159.36 242.426 159.367 242.429 159.368C242.43 159.369 242.417 159.364 242.401 159.351C242.384 159.338 242.38 159.329 242.385 159.336C242.39 159.346 242.406 159.378 242.423 159.443L244.363 158.957C244.255 158.527 244.04 158.101 243.65 157.789C243.257 157.475 242.792 157.36 242.343 157.36V159.36ZM242.397 159.293L242.817 163.773L244.808 163.587L244.388 159.107L242.397 159.293ZM243.366 164.574C245.416 165.6 247.987 166.08 251.023 166.08V164.08C248.179 164.08 245.943 163.627 244.26 162.786L243.366 164.574ZM251.023 166.08C253.441 166.08 255.505 165.447 257.123 164.098L255.843 162.562C254.661 163.547 253.084 164.08 251.023 164.08V166.08ZM257.145 164.079C258.518 162.865 259.303 161.42 259.303 159.76H257.303C257.303 160.714 256.875 161.648 255.82 162.581L257.145 164.079ZM259.303 159.76C259.303 158.307 259.009 157.02 258.198 156.142L256.728 157.498C257.037 157.833 257.303 158.507 257.303 159.76H259.303ZM258.215 156.161C257.492 155.335 256.693 154.687 255.81 154.246L254.916 156.034C255.526 156.34 256.127 156.811 256.71 157.479L258.215 156.161ZM255.81 154.246C254.73 153.706 253.681 153.304 252.665 153.05L252.18 154.99C253.031 155.203 253.942 155.548 254.916 156.034L255.81 154.246ZM252.731 153.069C249.264 151.944 247.14 151.212 246.301 150.858L245.525 152.702C246.459 153.095 248.674 153.856 252.114 154.971L252.731 153.069ZM246.329 150.871C245.287 150.393 244.308 149.785 243.392 149.043L242.134 150.597C243.177 151.442 244.298 152.14 245.496 152.689L246.329 150.871ZM243.403 149.052C241.691 147.625 240.823 145.723 240.823 143.24H238.823C238.823 146.263 239.915 148.748 242.123 150.588L243.403 149.052ZM240.823 143.24C240.823 140.748 241.803 138.636 243.841 136.853L242.524 135.347C240.083 137.484 238.823 140.132 238.823 143.24H240.823ZM243.843 136.851C245.937 135.009 248.96 134.02 253.053 134.02V132.02C248.652 132.02 245.096 133.085 242.522 135.349L243.843 136.851Z" fill="#F2DBAC"/>
</g>
<path d="M67.4876 184.021L218.78 200.824L209.667 206.858L212.145 214.361L210.436 221.493L205.804 226.9L211.577 243.224L214.241 254.275L212.377 258.47L61.0853 241.667L65.7171 234.66L63.16 224.051L59.0217 202.372L63.6211 194.746L61.134 185.467L67.4876 184.021Z" fill="#E7E1CA"/>
<g filter="url(#filter1_d)">
<path d="M99.4638 239.208C99.484 239.026 99.6379 238.471 99.9253 237.544C100.213 236.617 100.531 235.582 100.879 234.44C100.616 235.149 100.336 235.837 100.041 236.505C99.7816 237.177 99.5042 237.847 99.2087 238.516C99.0102 237.977 98.9454 237.398 99.0142 236.779C99.1437 235.612 99.415 234.499 99.8279 233.438C100.281 232.345 100.664 231.225 100.976 230.079L101.522 230.14C101.713 228.759 101.958 227.384 102.257 226.016C102.561 224.611 102.789 223.216 102.943 221.831C103.093 220.483 103.093 219.154 102.943 217.847C102.793 216.539 102.398 215.277 101.758 214.063L101.412 214.19C101.619 214.656 101.795 215.229 101.941 215.909C102.127 216.557 102.273 217.237 102.378 217.95C102.483 218.662 102.552 219.371 102.585 220.076C102.658 220.748 102.668 221.321 102.615 221.794C102.465 223.143 102.261 224.485 102.002 225.821C101.779 227.162 101.449 228.472 101.012 229.751C101.239 228.706 101.466 227.662 101.692 226.617C101.923 225.536 102.097 224.467 102.214 223.41C102.397 221.77 102.368 220.199 102.129 218.697C101.894 217.158 101.526 215.66 101.024 214.202C100.525 212.708 99.9099 211.275 99.1769 209.902C98.4845 208.497 97.7353 207.104 96.9295 205.724C96.3423 204.699 95.8665 203.669 95.502 202.632C95.178 201.563 94.7589 200.521 94.2446 199.504C94.5442 199.464 94.7953 199.363 94.9977 199.201C95.2042 199.002 95.4553 198.901 95.7508 198.897C96.0302 199.039 96.2631 199.267 96.4494 199.583C96.6721 199.903 96.8583 200.219 97.0082 200.531L97.5366 200.257C97.33 199.46 97.2652 198.715 97.3421 198.022C97.3745 197.731 97.4676 197.39 97.6215 197.002C97.8158 196.581 98.1134 196.392 98.5143 196.437C98.9516 196.485 99.478 196.894 100.094 197.664C100.713 198.397 101.365 199.336 102.049 200.482C102.77 201.632 103.477 202.909 104.169 204.314C104.866 205.683 105.512 207.009 106.107 208.292C106.702 209.576 107.198 210.756 107.595 211.833C108.033 212.878 108.318 213.629 108.452 214.087L109.448 213.589L109.739 213.953C110.335 213.244 110.995 212.617 111.719 212.07C112.448 211.487 113.175 210.922 113.9 210.375C114.661 209.833 115.386 209.286 116.074 208.735C116.803 208.152 117.43 207.484 117.957 206.731L117.647 206.53C116.44 207.761 115.151 208.909 113.778 209.974C112.491 210.938 111.217 211.94 109.958 212.981C111.922 211.244 113.827 209.537 115.673 207.861C117.604 206.083 119.56 204.253 121.54 202.37L124.115 200.11C124.216 200.195 124.336 200.282 124.474 200.371C124.648 200.464 124.822 200.558 124.996 200.651C125.17 200.744 125.306 200.851 125.403 200.973C125.537 201.098 125.595 201.234 125.579 201.38C125.567 201.489 125.496 201.629 125.367 201.799C125.277 201.936 125.192 202.038 125.111 202.102L125.567 202.485C126.247 202.007 126.97 201.811 127.735 201.896C128.136 201.94 128.434 202.084 128.628 202.327C128.859 202.574 128.952 202.898 128.908 203.299C128.814 204.137 128.42 205.034 127.723 205.989C127.031 206.909 126.169 207.864 125.136 208.856C124.108 209.812 122.986 210.776 121.771 211.748C120.597 212.687 119.447 213.574 118.322 214.408C117.196 215.242 116.188 216.016 115.297 216.728C114.447 217.409 113.831 217.967 113.451 218.405C113.301 218.425 113.086 218.53 112.807 218.721C112.564 218.915 112.282 219.124 111.963 219.346C111.679 219.573 111.38 219.78 111.064 219.966C110.752 220.116 110.468 220.176 110.213 220.148L109.582 219.857C109.675 219.682 109.966 219.383 110.456 218.958C110.946 218.532 111.493 218.095 112.096 217.646C112.699 217.196 113.262 216.779 113.785 216.394C114.307 216.01 114.667 215.755 114.866 215.629C114.376 215.722 113.833 215.957 113.238 216.334C112.683 216.678 112.122 217.077 111.556 217.53C111.029 217.951 110.539 218.377 110.086 218.806C109.669 219.239 109.391 219.577 109.254 219.82C109.136 220.877 108.962 222.112 108.732 223.525C108.505 224.902 108.236 226.329 107.924 227.807C107.649 229.289 107.339 230.749 106.995 232.186C106.651 233.624 106.307 234.895 105.963 236.001C105.655 237.11 105.335 237.997 105.003 238.661C104.703 239.366 104.426 239.704 104.171 239.675C104.098 239.667 103.993 239.619 103.855 239.53C104.183 238.238 104.511 236.946 104.839 235.655C105.155 234.472 105.47 233.29 105.786 232.108L103.527 239.493L102.786 239.19C102.669 239.582 102.454 240.02 102.142 240.502C101.831 240.983 101.438 241.198 100.964 241.145C100.563 241.101 100.203 240.858 99.8829 240.417C99.559 240.012 99.4193 239.609 99.4638 239.208ZM108.81 215.344C109.272 215.174 109.804 214.864 110.407 214.415C111.047 213.969 111.691 213.487 112.339 212.969C112.991 212.414 113.606 211.855 114.185 211.292C114.801 210.734 115.333 210.258 115.783 209.865C114.548 210.687 113.394 211.61 112.321 212.635C111.252 213.623 110.055 214.431 108.731 215.058L108.81 215.344ZM102.597 228.433C102.824 227.72 103.033 227.006 103.223 226.289C103.417 225.536 103.557 224.777 103.642 224.011C103.796 222.627 103.814 221.134 103.696 219.535C103.672 220.75 103.593 221.958 103.46 223.161C103.362 224.036 103.227 224.924 103.053 225.827C102.919 226.698 102.767 227.567 102.597 228.433ZM105.877 231.786C106.302 230.283 106.689 228.795 107.037 227.321C107.381 225.884 107.673 224.422 107.912 222.936C107.6 224.414 107.272 225.872 106.928 227.309C106.58 228.783 106.23 230.275 105.877 231.786ZM105.804 231.944L105.786 232.108C105.794 232.035 105.8 231.98 105.804 231.944ZM144.85 243.917C143.412 244.237 142.327 244.374 141.594 244.33C140.857 244.322 140.214 244.306 139.663 244.281C137.622 244.055 135.824 243.468 134.269 242.52C132.714 241.573 131.427 240.378 130.406 238.937C129.386 237.495 128.645 235.864 128.183 234.042C127.762 232.187 127.663 230.258 127.885 228.253C128.015 227.087 128.258 225.897 128.614 224.682C128.974 223.431 129.44 222.228 130.011 221.074C130.586 219.884 131.278 218.798 132.088 217.818C132.861 216.835 133.75 215.974 134.754 215.237C133.721 215.897 132.819 216.719 132.045 217.703C131.235 218.683 130.525 219.766 129.913 220.953C129.306 222.103 128.82 223.321 128.456 224.609C128.096 225.86 127.849 227.087 127.715 228.29C127.545 229.82 127.6 231.487 127.879 233.288C128.199 235.058 128.823 236.75 129.75 238.366C130.682 239.945 131.949 241.322 133.553 242.496C135.193 243.674 137.252 244.401 139.73 244.676C140.896 244.806 142.135 244.777 143.447 244.591C141.961 245.348 140.361 245.632 138.649 245.442C137.264 245.288 135.976 244.923 134.786 244.348C133.628 243.814 132.563 243.105 131.591 242.223C130.651 241.381 129.819 240.403 129.094 239.289C128.37 238.176 127.78 237.004 127.327 235.773L127.867 235.39C127.385 234.082 127.067 232.792 126.914 231.521C126.796 230.254 126.808 228.982 126.95 227.707C127.156 225.848 127.61 224.091 128.31 222.435C129.047 220.783 129.938 219.24 130.982 217.806L132.495 216.148C132.758 215.772 133.112 215.405 133.557 215.049C134.039 214.696 134.556 214.366 135.106 214.059C135.661 213.714 136.228 213.427 136.807 213.196C137.426 212.933 138.005 212.702 138.544 212.504C139.929 211.993 141.305 211.556 142.674 211.192C144.047 210.791 145.622 210.56 147.399 210.499L147.199 210.311C143.81 210.266 140.876 210.771 138.398 211.823C135.924 212.84 133.855 214.196 132.191 215.893C130.527 217.59 129.243 219.513 128.34 221.663C127.442 223.777 126.875 225.891 126.64 228.004C126.515 229.134 126.478 230.292 126.531 231.479C126.624 232.633 126.808 233.797 127.084 234.971C126.416 232.683 126.217 230.319 126.488 227.877C126.755 225.472 127.421 223.129 128.486 220.849C129.551 218.57 131.051 216.523 132.987 214.709C135.396 212.947 137.953 211.682 140.657 210.912C143.366 210.106 145.923 209.837 148.329 210.104C149.094 210.189 149.863 210.404 150.637 210.748C151.41 211.092 152.094 211.574 152.69 212.193C153.289 212.776 153.742 213.509 154.05 214.392C154.394 215.279 154.5 216.323 154.366 217.526C154.257 218.51 153.886 219.686 153.255 221.055C152.623 222.423 151.759 223.729 150.662 224.972C149.605 226.183 148.331 227.185 146.841 227.979C145.355 228.736 143.701 229.014 141.879 228.811L140.075 228.611C138.759 228.17 137.557 227.704 136.467 227.214C135.419 226.692 134.414 226.267 133.455 225.939C133.244 226.506 133.09 227.061 132.993 227.603C132.937 228.113 132.88 228.624 132.823 229.134C132.706 230.191 132.7 231.241 132.805 232.286C132.951 233.298 133.232 234.252 133.65 235.147C134.067 236.042 134.625 236.823 135.326 237.491C136.067 238.127 136.994 238.58 138.108 238.852C138.784 239.074 139.375 239.232 139.881 239.325C140.392 239.382 140.809 239.447 141.133 239.52C141.497 239.56 141.746 239.643 141.88 239.768C142.054 239.862 142.127 240.036 142.098 240.291C141.722 240.36 141.331 240.39 140.926 240.382C140.558 240.378 140.173 240.354 139.772 240.309C138.497 240.168 137.371 239.84 136.395 239.325C135.423 238.775 134.603 238.186 133.935 237.558C134.68 238.489 135.616 239.202 136.741 239.696C137.871 240.153 139.001 240.445 140.13 240.57C140.75 240.639 141.394 240.655 142.062 240.619C141.965 240.829 141.914 240.953 141.91 240.989C141.886 241.208 141.961 241.364 142.135 241.457C142.285 241.437 142.55 241.374 142.93 241.269C143.315 241.127 143.698 241.003 144.078 240.898C144.499 240.76 144.898 240.657 145.275 240.588C145.656 240.483 145.919 240.438 146.064 240.455C146.247 240.475 146.407 240.53 146.544 240.619C146.686 240.671 146.737 240.88 146.696 241.244C146.656 241.609 146.48 242.032 146.168 242.514C145.856 242.995 145.417 243.463 144.85 243.917ZM139.71 221.432L140.889 221.784C141.282 221.902 141.642 221.979 141.97 222.015C142.334 222.055 142.766 221.993 143.264 221.827C143.802 221.628 144.333 221.337 144.855 220.952C145.414 220.571 145.912 220.073 146.349 219.458C146.823 218.846 147.197 218.132 147.472 217.314L147.618 216.998C147.108 216.941 146.329 216.984 145.28 217.125C144.231 217.267 143.136 217.496 141.994 217.812C140.856 218.091 139.781 218.47 138.769 218.948C137.761 219.389 137.038 219.918 136.601 220.533C137.135 220.703 137.651 220.871 138.149 221.037C138.688 221.171 139.208 221.302 139.71 221.432ZM136.747 225.198C136.828 225.133 136.876 225.028 136.892 224.882C136.945 224.74 136.975 224.633 136.983 224.56L134.518 223.345L134.159 224.08L136.747 225.198ZM133.838 237.437C133.615 237.117 133.392 236.797 133.17 236.477C132.979 236.198 132.826 235.922 132.708 235.651C132.967 236.307 133.344 236.902 133.838 237.437ZM179.768 219.13C179.44 219.093 178.978 219.097 178.383 219.142C177.824 219.19 177.245 219.255 176.646 219.336C176.083 219.421 175.557 219.51 175.067 219.604C174.613 219.701 174.328 219.78 174.21 219.841C175.174 219.8 176.067 219.733 176.889 219.64C177.715 219.51 178.602 219.498 179.549 219.603C179.33 219.911 179.065 220.14 178.753 220.29C178.442 220.44 178.098 220.549 177.721 220.618C177.385 220.654 177.012 220.687 176.603 220.715C176.198 220.707 175.771 220.733 175.322 220.794L174.994 220.26C174.273 220.438 173.726 220.543 173.354 220.575C172.985 220.571 172.601 220.547 172.2 220.503C171.763 220.454 171.307 220.404 170.833 220.351C170.4 220.266 169.91 220.193 169.363 220.132C169.343 220.315 169.309 220.458 169.26 220.564C170.098 220.657 170.809 220.736 171.392 220.8C171.979 220.829 172.698 220.835 173.548 220.818C172.73 220.875 172.008 220.906 171.38 220.91C170.789 220.918 170.074 220.875 169.236 220.782C168.997 221.604 168.778 222.41 168.58 223.2C168.382 223.989 168.24 224.767 168.155 225.532C168.106 225.969 168.068 226.481 168.04 227.069C168.011 227.656 167.981 228.261 167.949 228.885C167.957 229.476 167.949 230.047 167.924 230.597C167.904 231.112 167.88 231.496 167.852 231.751L167.487 235.031C167.589 235.78 168.056 236.386 168.89 236.847C169.725 237.309 170.962 237.631 172.602 237.813L174.351 238.007C174.97 238.076 175.381 238.195 175.584 238.365C175.827 238.503 175.936 238.681 175.912 238.9C175.892 239.082 175.734 239.175 175.438 239.179C175.147 239.147 174.855 239.114 174.563 239.082C173.507 238.965 172.403 238.768 171.253 238.493C170.176 238.226 169.119 237.943 168.083 237.643C169.111 238.015 170.196 238.376 171.338 238.724C172.521 239.04 173.677 239.26 174.806 239.386L175.298 239.44C175.444 239.457 175.61 239.457 175.796 239.44C175.776 239.623 175.758 239.787 175.742 239.932C175.762 240.082 175.799 240.252 175.851 240.443L176.301 240.382C176.414 240.358 176.544 240.353 176.689 240.37C176.839 240.349 176.955 240.307 177.036 240.242C178.19 240.481 178.728 240.947 178.651 241.639C178.607 242.04 178.461 242.356 178.214 242.586C177.967 242.817 177.671 242.987 177.327 243.097C176.983 243.206 176.606 243.275 176.197 243.303C175.793 243.295 175.408 243.271 175.043 243.23C173.768 243.089 172.519 242.876 171.296 242.593C170.114 242.277 168.949 241.963 167.804 241.652C168.783 242.129 170.045 242.565 171.588 242.957C173.13 243.35 174.703 243.635 176.307 243.813C175.878 244.024 175.382 244.172 174.819 244.257C174.256 244.342 173.683 244.352 173.1 244.287L169.219 243.358C168.717 243.229 168.324 243.111 168.04 243.006C167.793 242.905 167.546 242.804 167.299 242.702C167.056 242.565 166.777 242.423 166.461 242.277C166.182 242.136 165.777 241.961 165.246 241.755L165.313 241.154C164.394 240.793 163.677 240.271 163.163 239.587C162.649 238.902 162.268 238.178 162.021 237.412C161.774 236.647 161.636 235.894 161.608 235.153C161.584 234.376 161.604 233.695 161.669 233.112C161.737 232.493 161.8 231.928 161.857 231.418C161.954 230.875 162.033 230.33 162.094 229.784C162.138 229.383 162.177 228.871 162.209 228.247C162.278 227.628 162.332 226.97 162.373 226.273C162.413 225.577 162.456 224.862 162.5 224.129C162.581 223.4 162.658 222.708 162.731 222.052C162.776 221.651 162.818 221.268 162.859 220.904C162.935 220.544 163.008 220.22 163.077 219.932L162.53 219.871C162.466 220.122 162.415 220.412 162.379 220.74L162.269 221.724C162.152 222.781 162.053 223.84 161.972 224.901C161.895 225.925 161.808 226.874 161.711 227.749C161.65 228.628 161.602 229.397 161.565 230.057C161.533 230.681 161.501 231.138 161.468 231.43L161.225 233.616L161.177 234.054C161.177 233.058 161.223 231.642 161.316 229.808C161.442 227.682 161.646 225.344 161.929 222.793L162.039 221.809C162.083 221.408 162.126 221.025 162.166 220.661C162.243 220.301 162.328 220.033 162.421 219.859L160.575 219.544C160.202 219.244 159.824 218.999 159.439 218.809C159.054 218.618 158.698 218.505 158.37 218.469L158.491 217.375C158.516 217.157 158.554 216.976 158.607 216.835C158.7 216.661 158.892 216.59 159.184 216.622C159.257 216.63 159.435 216.687 159.718 216.792L159.791 216.136C159.414 215.873 159.119 215.545 158.904 215.152C158.694 214.723 158.611 214.308 158.655 213.907C158.76 212.96 159.487 212.561 160.836 212.711C161.346 212.767 161.87 212.862 162.409 212.996C162.947 213.13 163.506 213.247 164.085 213.348C164.32 212.563 164.526 211.866 164.704 211.259C164.887 210.615 165.065 210.008 165.239 209.437C165.417 208.829 165.611 208.242 165.822 207.675C166.036 207.072 166.29 206.454 166.581 205.823C166.99 205.13 167.332 204.375 167.607 203.557C167.887 202.703 168.109 201.861 168.275 201.03L169.417 201.213C169.599 201.233 169.739 201.304 169.836 201.425C169.97 201.551 170.015 201.814 169.97 202.215C169.934 202.543 169.83 202.974 169.66 203.508L170.298 203.745C170.699 202.794 171.134 202.03 171.604 201.455C172.11 200.885 172.563 200.621 172.964 200.666C173.584 200.735 173.879 201.561 173.851 203.144L173.742 204.128C173.637 205.075 173.465 205.96 173.226 206.782C173.027 207.572 172.793 208.357 172.521 209.139C172.25 209.92 171.977 210.72 171.701 211.538C171.426 212.356 171.161 213.249 170.906 214.216C171.696 214.415 172.473 214.556 173.238 214.641C173.603 214.682 173.967 214.722 174.332 214.763C174.7 214.767 175.066 214.789 175.431 214.83C175.795 214.87 176.194 214.767 176.627 214.52C177.061 214.273 177.441 214.168 177.769 214.204C178.061 214.236 178.269 214.352 178.395 214.55C178.52 214.749 178.571 214.957 178.547 215.176C177.871 215.285 177.192 215.413 176.512 215.558C175.872 215.672 175.251 215.787 174.647 215.905C175.239 215.897 175.872 215.838 176.548 215.729C177.229 215.583 177.943 215.459 178.692 215.358C178.672 215.54 178.654 215.704 178.638 215.85C178.658 216 178.695 216.17 178.747 216.36C178.82 216.368 178.913 216.36 179.027 216.336C179.253 216.287 179.385 216.265 179.421 216.269C179.766 216.492 179.976 216.755 180.053 217.058C180.134 217.326 180.156 217.623 180.12 217.951C180.092 218.206 180.029 218.439 179.932 218.65C179.839 218.824 179.784 218.984 179.768 219.13ZM163.042 237.692C162.641 236.651 162.475 235.655 162.543 234.704C162.612 233.752 162.657 232.853 162.677 232.007L163.108 223.643L162.834 224.609C162.563 227.051 162.389 229.282 162.312 231.302C162.276 233.29 162.361 234.849 162.568 235.979C162.531 236.307 162.489 236.524 162.44 236.629C162.428 236.738 162.418 236.829 162.41 236.902C162.402 236.975 162.428 237.07 162.489 237.188C162.586 237.309 162.77 237.477 163.042 237.692ZM166.485 235.086C166.445 234.786 166.443 234.473 166.479 234.145L166.777 231.466C166.7 231.826 166.623 232.187 166.546 232.547C166.473 232.871 166.416 233.215 166.376 233.58C166.271 234.527 166.244 235.262 166.297 235.784C166.358 236.234 166.536 236.623 166.831 236.951C166.674 236.712 166.572 236.461 166.528 236.197C166.524 235.902 166.51 235.531 166.485 235.086ZM161.189 234.442L161.177 234.054L161.189 234.442ZM166.935 237.017C166.902 236.977 166.868 236.955 166.831 236.951C166.868 236.955 166.902 236.977 166.935 237.017Z" fill="#3A3935"/>
</g>
<g filter="url(#filter2_i)">
<circle cx="18" cy="22" r="10" fill="url(#paint1_radial)"/>
</g>
<circle cx="48" cy="22" r="10" fill="url(#paint2_radial)"/>
<circle cx="78" cy="22" r="10" fill="url(#paint3_radial)"/>
<circle cx="108" cy="22" r="10" fill="url(#paint4_radial)"/>
<circle cx="138" cy="22" r="10" fill="url(#paint5_radial)"/>
<circle cx="168" cy="22" r="10" fill="url(#paint6_radial)"/>
<circle cx="198" cy="22" r="10" fill="url(#paint7_radial)"/>
<circle cx="228" cy="22" r="10" fill="url(#paint8_radial)"/>
<circle cx="258" cy="22" r="10" fill="url(#paint9_radial)"/>
<g filter="url(#filter3_i)">
<circle cx="18" cy="279" r="10" fill="url(#paint10_radial)"/>
</g>
<circle cx="48" cy="279" r="10" fill="url(#paint11_radial)"/>
<circle cx="78" cy="279" r="10" fill="url(#paint12_radial)"/>
<circle cx="108" cy="279" r="10" fill="url(#paint13_radial)"/>
<circle cx="138" cy="279" r="10" fill="url(#paint14_radial)"/>
<circle cx="168" cy="279" r="10" fill="url(#paint15_radial)"/>
<circle cx="198" cy="279" r="10" fill="url(#paint16_radial)"/>
<circle cx="228" cy="279" r="10" fill="url(#paint17_radial)"/>
<circle cx="258" cy="279" r="10" fill="url(#paint18_radial)"/>
<defs>
<filter id="filter0_d" x="17.7863" y="46.88" width="249.327" height="125.75" filterUnits="userSpaceOnUse" color-interpolation-filters="sRGB">
<feFlood flood-opacity="0" result="BackgroundImageFix"/>
<feColorMatrix in="SourceAlpha" type="matrix" values="0 0 0 0 0 0 0 0 0 0 0 0 0 0 0 0 0 0 127 0"/>
<feOffset/>
<feGaussianBlur stdDeviation="1"/>
<feColorMatrix type="matrix" values="0 0 0 0 0.996078 0 0 0 0 0.772549 0 0 0 0 0.501961 0 0 0 0.8 0"/>
<feBlend mode="normal" in2="BackgroundImageFix" result="effect1_dropShadow"/>
<feBlend mode="normal" in="SourceGraphic" in2="effect1_dropShadow" result="shape"/>
</filter>
<filter id="filter1_d" x="92.2446" y="194.43" width="89.8923" height="53.0684" filterUnits="userSpaceOnUse" color-interpolation-filters="sRGB">
<feFlood flood-opacity="0" result="BackgroundImageFix"/>
<feColorMatrix in="SourceAlpha" type="matrix" values="0 0 0 0 0 0 0 0 0 0 0 0 0 0 0 0 0 0 127 0"/>
<feOffset/>
<feGaussianBlur stdDeviation="1"/>
<feColorMatrix type="matrix" values="0 0 0 0 0.996078 0 0 0 0 0.772549 0 0 0 0 0.501961 0 0 0 0.8 0"/>
<feBlend mode="normal" in2="BackgroundImageFix" result="effect1_dropShadow"/>
<feBlend mode="normal" in="SourceGraphic" in2="effect1_dropShadow" result="shape"/>
</filter>
<filter id="filter2_i" x="8" y="12" width="20" height="20" filterUnits="userSpaceOnUse" color-interpolation-filters="sRGB">
<feFlood flood-opacity="0" result="BackgroundImageFix"/>
<feBlend mode="normal" in="SourceGraphic" in2="BackgroundImageFix" result="shape"/>
<feColorMatrix in="SourceAlpha" type="matrix" values="0 0 0 0 0 0 0 0 0 0 0 0 0 0 0 0 0 0 127 0" result="hardAlpha"/>
<feOffset/>
<feGaussianBlur stdDeviation="2.5"/>
<feComposite in2="hardAlpha" operator="arithmetic" k2="-1" k3="1"/>
<feColorMatrix type="matrix" values="0 0 0 0 0.25098 0 0 0 0 0.192157 0 0 0 0 0.117647 0 0 0 1 0"/>
<feBlend mode="lighten" in2="shape" result="effect1_innerShadow"/>
</filter>
<filter id="filter3_i" x="8" y="269" width="20" height="20" filterUnits="userSpaceOnUse" color-interpolation-filters="sRGB">
<feFlood flood-opacity="0" result="BackgroundImageFix"/>
<feBlend mode="normal" in="SourceGraphic" in2="BackgroundImageFix" result="shape"/>
<feColorMatrix in="SourceAlpha" type="matrix" values="0 0 0 0 0 0 0 0 0 0 0 0 0 0 0 0 0 0 127 0" result="hardAlpha"/>
<feOffset/>
<feGaussianBlur stdDeviation="2.5"/>
<feComposite in2="hardAlpha" operator="arithmetic" k2="-1" k3="1"/>
<feColorMatrix type="matrix" values="0 0 0 0 0.25098 0 0 0 0 0.192157 0 0 0 0 0.117647 0 0 0 1 0"/>
<feBlend mode="lighten" in2="shape" result="effect1_innerShadow"/>
</filter>
<radialGradient id="paint0_radial" cx="0" cy="0" r="1" gradientUnits="userSpaceOnUse" gradientTransform="translate(138 152) rotate(90) scale(152 138)">
<stop stop-color="#4E3E2B"/>
<stop offset="1" stop-color="#1A150F"/>
</radialGradient>
<radialGradient id="paint1_radial" cx="0" cy="0" r="1" gradientUnits="userSpaceOnUse" gradientTransform="translate(18 22) rotate(90) scale(10)">
<stop stop-color="white"/>
<stop offset="0.567708" stop-color="#FDF9D6"/>
<stop offset="0.661458" stop-color="#FAF9B4"/>
<stop offset="0.744792" stop-color="#FFFAB6"/>
<stop offset="0.895833" stop-color="#FC853F"/>
<stop offset="0.942708" stop-color="#E17C33"/>
<stop offset="1" stop-color="#86481B"/>
</radialGradient>
<radialGradient id="paint2_radial" cx="0" cy="0" r="1" gradientUnits="userSpaceOnUse" gradientTransform="translate(48 22) rotate(90) scale(10)">
<stop stop-color="white"/>
<stop offset="0.567708" stop-color="#FDF9D6"/>
<stop offset="0.661458" stop-color="#FAF9B4"/>
<stop offset="0.744792" stop-color="#FFFAB6"/>
<stop offset="0.895833" stop-color="#FC853F"/>
<stop offset="0.942708" stop-color="#E17C33"/>
<stop offset="1" stop-color="#86481B"/>
</radialGradient>
<radialGradient id="paint3_radial" cx="0" cy="0" r="1" gradientUnits="userSpaceOnUse" gradientTransform="translate(78 22) rotate(90) scale(10)">
<stop stop-color="white"/>
<stop offset="0.567708" stop-color="#FDF9D6"/>
<stop offset="0.661458" stop-color="#FAF9B4"/>
<stop offset="0.744792" stop-color="#FFFAB6"/>
<stop offset="0.895833" stop-color="#FC853F"/>
<stop offset="0.942708" stop-color="#E17C33"/>
<stop offset="1" stop-color="#86481B"/>
</radialGradient>
<radialGradient id="paint4_radial" cx="0" cy="0" r="1" gradientUnits="userSpaceOnUse" gradientTransform="translate(108 22) rotate(90) scale(10)">
<stop stop-color="white"/>
<stop offset="0.567708" stop-color="#FDF9D6"/>
<stop offset="0.661458" stop-color="#FAF9B4"/>
<stop offset="0.744792" stop-color="#FFFAB6"/>
<stop offset="0.895833" stop-color="#FC853F"/>
<stop offset="0.942708" stop-color="#E17C33"/>
<stop offset="1" stop-color="#86481B"/>
</radialGradient>
<radialGradient id="paint5_radial" cx="0" cy="0" r="1" gradientUnits="userSpaceOnUse" gradientTransform="translate(138 22) rotate(90) scale(10)">
<stop stop-color="white"/>
<stop offset="0.567708" stop-color="#FDF9D6"/>
<stop offset="0.661458" stop-color="#FAF9B4"/>
<stop offset="0.744792" stop-color="#FFFAB6"/>
<stop offset="0.895833" stop-color="#FC853F"/>
<stop offset="0.942708" stop-color="#E17C33"/>
<stop offset="1" stop-color="#86481B"/>
</radialGradient>
<radialGradient id="paint6_radial" cx="0" cy="0" r="1" gradientUnits="userSpaceOnUse" gradientTransform="translate(168 22) rotate(90) scale(10)">
<stop stop-color="white"/>
<stop offset="0.567708" stop-color="#FDF9D6"/>
<stop offset="0.661458" stop-color="#FAF9B4"/>
<stop offset="0.744792" stop-color="#FFFAB6"/>
<stop offset="0.895833" stop-color="#FC853F"/>
<stop offset="0.942708" stop-color="#E17C33"/>
<stop offset="1" stop-color="#86481B"/>
</radialGradient>
<radialGradient id="paint7_radial" cx="0" cy="0" r="1" gradientUnits="userSpaceOnUse" gradientTransform="translate(198 22) rotate(90) scale(10)">
<stop stop-color="white"/>
<stop offset="0.567708" stop-color="#FDF9D6"/>
<stop offset="0.661458" stop-color="#FAF9B4"/>
<stop offset="0.744792" stop-color="#FFFAB6"/>
<stop offset="0.895833" stop-color="#FC853F"/>
<stop offset="0.942708" stop-color="#E17C33"/>
<stop offset="1" stop-color="#86481B"/>
</radialGradient>
<radialGradient id="paint8_radial" cx="0" cy="0" r="1" gradientUnits="userSpaceOnUse" gradientTransform="translate(228 22) rotate(90) scale(10)">
<stop stop-color="white"/>
<stop offset="0.567708" stop-color="#FDF9D6"/>
<stop offset="0.661458" stop-color="#FAF9B4"/>
<stop offset="0.744792" stop-color="#FFFAB6"/>
<stop offset="0.895833" stop-color="#FC853F"/>
<stop offset="0.942708" stop-color="#E17C33"/>
<stop offset="1" stop-color="#86481B"/>
</radialGradient>
<radialGradient id="paint9_radial" cx="0" cy="0" r="1" gradientUnits="userSpaceOnUse" gradientTransform="translate(258 22) rotate(90) scale(10)">
<stop stop-color="white"/>
<stop offset="0.567708" stop-color="#FDF9D6"/>
<stop offset="0.661458" stop-color="#FAF9B4"/>
<stop offset="0.744792" stop-color="#FFFAB6"/>
<stop offset="0.895833" stop-color="#FC853F"/>
<stop offset="0.942708" stop-color="#E17C33"/>
<stop offset="1" stop-color="#86481B"/>
</radialGradient>
<radialGradient id="paint10_radial" cx="0" cy="0" r="1" gradientUnits="userSpaceOnUse" gradientTransform="translate(18 279) rotate(90) scale(10)">
<stop stop-color="white"/>
<stop offset="0.567708" stop-color="#FDF9D6"/>
<stop offset="0.661458" stop-color="#FAF9B4"/>
<stop offset="0.744792" stop-color="#FFFAB6"/>
<stop offset="0.895833" stop-color="#FC853F"/>
<stop offset="0.942708" stop-color="#E17C33"/>
<stop offset="1" stop-color="#86481B"/>
</radialGradient>
<radialGradient id="paint11_radial" cx="0" cy="0" r="1" gradientUnits="userSpaceOnUse" gradientTransform="translate(48 279) rotate(90) scale(10)">
<stop stop-color="white"/>
<stop offset="0.567708" stop-color="#FDF9D6"/>
<stop offset="0.661458" stop-color="#FAF9B4"/>
<stop offset="0.744792" stop-color="#FFFAB6"/>
<stop offset="0.895833" stop-color="#FC853F"/>
<stop offset="0.942708" stop-color="#E17C33"/>
<stop offset="1" stop-color="#86481B"/>
</radialGradient>
<radialGradient id="paint12_radial" cx="0" cy="0" r="1" gradientUnits="userSpaceOnUse" gradientTransform="translate(78 279) rotate(90) scale(10)">
<stop stop-color="white"/>
<stop offset="0.567708" stop-color="#FDF9D6"/>
<stop offset="0.661458" stop-color="#FAF9B4"/>
<stop offset="0.744792" stop-color="#FFFAB6"/>
<stop offset="0.895833" stop-color="#FC853F"/>
<stop offset="0.942708" stop-color="#E17C33"/>
<stop offset="1" stop-color="#86481B"/>
</radialGradient>
<radialGradient id="paint13_radial" cx="0" cy="0" r="1" gradientUnits="userSpaceOnUse" gradientTransform="translate(108 279) rotate(90) scale(10)">
<stop stop-color="white"/>
<stop offset="0.567708" stop-color="#FDF9D6"/>
<stop offset="0.661458" stop-color="#FAF9B4"/>
<stop offset="0.744792" stop-color="#FFFAB6"/>
<stop offset="0.895833" stop-color="#FC853F"/>
<stop offset="0.942708" stop-color="#E17C33"/>
<stop offset="1" stop-color="#86481B"/>
</radialGradient>
<radialGradient id="paint14_radial" cx="0" cy="0" r="1" gradientUnits="userSpaceOnUse" gradientTransform="translate(138 279) rotate(90) scale(10)">
<stop stop-color="white"/>
<stop offset="0.567708" stop-color="#FDF9D6"/>
<stop offset="0.661458" stop-color="#FAF9B4"/>
<stop offset="0.744792" stop-color="#FFFAB6"/>
<stop offset="0.895833" stop-color="#FC853F"/>
<stop offset="0.942708" stop-color="#E17C33"/>
<stop offset="1" stop-color="#86481B"/>
</radialGradient>
<radialGradient id="paint15_radial" cx="0" cy="0" r="1" gradientUnits="userSpaceOnUse" gradientTransform="translate(168 279) rotate(90) scale(10)">
<stop stop-color="white"/>
<stop offset="0.567708" stop-color="#FDF9D6"/>
<stop offset="0.661458" stop-color="#FAF9B4"/>
<stop offset="0.744792" stop-color="#FFFAB6"/>
<stop offset="0.895833" stop-color="#FC853F"/>
<stop offset="0.942708" stop-color="#E17C33"/>
<stop offset="1" stop-color="#86481B"/>
</radialGradient>
<radialGradient id="paint16_radial" cx="0" cy="0" r="1" gradientUnits="userSpaceOnUse" gradientTransform="translate(198 279) rotate(90) scale(10)">
<stop stop-color="white"/>
<stop offset="0.567708" stop-color="#FDF9D6"/>
<stop offset="0.661458" stop-color="#FAF9B4"/>
<stop offset="0.744792" stop-color="#FFFAB6"/>
<stop offset="0.895833" stop-color="#FC853F"/>
<stop offset="0.942708" stop-color="#E17C33"/>
<stop offset="1" stop-color="#86481B"/>
</radialGradient>
<radialGradient id="paint17_radial" cx="0" cy="0" r="1" gradientUnits="userSpaceOnUse" gradientTransform="translate(228 279) rotate(90) scale(10)">
<stop stop-color="white"/>
<stop offset="0.567708" stop-color="#FDF9D6"/>
<stop offset="0.661458" stop-color="#FAF9B4"/>
<stop offset="0.744792" stop-color="#FFFAB6"/>
<stop offset="0.895833" stop-color="#FC853F"/>
<stop offset="0.942708" stop-color="#E17C33"/>
<stop offset="1" stop-color="#86481B"/>
</radialGradient>
<radialGradient id="paint18_radial" cx="0" cy="0" r="1" gradientUnits="userSpaceOnUse" gradientTransform="translate(258 279) rotate(90) scale(10)">
<stop stop-color="white"/>
<stop offset="0.567708" stop-color="#FDF9D6"/>
<stop offset="0.661458" stop-color="#FAF9B4"/>
<stop offset="0.744792" stop-color="#FFFAB6"/>
<stop offset="0.895833" stop-color="#FC853F"/>
<stop offset="0.942708" stop-color="#E17C33"/>
<stop offset="1" stop-color="#86481B"/>
</radialGradient>
</defs>
</svg>
